# 
# Wavefront OBJ file
# Converted by the DEEP Exploration 
# Right Hemisphere, LTD
# http://www.righthemisphere.com/
# 
# object CONCSM
g CONCSM
v -0.117334 1.03282e-006 2.6192e-016
v -0.0586669 0.101615 -4.44169e-009
v 0.0586669 0.101615 -4.44169e-009
v 0.117334 1.04308e-006 7.10295e-016
v 0.0586669 -0.101613 4.44169e-009
v -0.0586669 -0.101613 4.44169e-009
v -0.117334 1.03473e-006 0.0435633
v -0.0586669 0.101615 0.0435633
v 0.0586669 0.101615 0.0435633
v 0.117334 1.04499e-006 0.0435633
v 0.0586669 -0.101613 0.0435633
v -0.0586669 -0.101613 0.0435633
v -0.157066 1.03276e-006 0.0871266
v -0.0785329 0.136024 0.0871266
v 0.0785329 0.136024 0.0871266
v 0.157066 1.04649e-006 0.0871266
v 0.0785329 -0.136022 0.0871266
v -0.0785329 -0.136022 0.0871266
v -0.0691582 1.04046e-006 0.590057
v -0.0345791 0.0598938 0.590057
v 0.0345791 0.0598938 0.590057
v 0.0691582 1.04666e-006 0.590057
v 0.0345791 -0.0598917 0.590057
v -0.0345791 -0.0598917 0.590057
v -6.04783e-009 -0.000426729 0.655402
v -0.0701243 0.12146 0.3
v -0.140249 1.03524e-006 0.3
v 0.0701243 0.12146 0.3
v 0.140249 1.04762e-006 0.3
v 0.0701243 -0.121458 0.3
v -0.0701243 -0.121458 0.3
v -0.0586669 0.101615 -4.44169e-009
v -0.0586669 0.101615 0.0435633
v -0.0586669 0.101615 -4.44169e-009
v 0.0586669 0.101615 -4.44169e-009
v 0.0586669 0.101615 0.0435633
v 0.0586669 0.101615 -4.44169e-009
v 0.117334 1.04308e-006 7.10295e-016
v 0.117334 1.04499e-006 0.0435633
v 0.117334 1.04308e-006 7.10295e-016
v 0.0586669 -0.101613 4.44169e-009
v 0.0586669 -0.101613 0.0435633
v 0.0586669 -0.101613 4.44169e-009
v -0.0586669 -0.101613 4.44169e-009
v -0.117334 1.03282e-006 2.6192e-016
v -0.117334 1.03473e-006 0.0435633
v -0.117334 1.03473e-006 0.0435633
v -0.0586669 -0.101613 0.0435633
v -0.0586669 -0.101613 4.44169e-009
v -0.0586669 0.101615 0.0435633
v -0.0785329 0.136024 0.0871266
v -0.0586669 0.101615 0.0435633
v 0.0586669 0.101615 0.0435633
v 0.0785329 0.136024 0.0871266
v 0.0586669 0.101615 0.0435633
v 0.117334 1.04499e-006 0.0435633
v 0.157066 1.04649e-006 0.0871266
v 0.117334 1.04499e-006 0.0435633
v 0.0586669 -0.101613 0.0435633
v 0.0785329 -0.136022 0.0871266
v 0.0586669 -0.101613 0.0435633
v -0.0586669 -0.101613 0.0435633
v -0.117334 1.03473e-006 0.0435633
v -0.157066 1.03276e-006 0.0871266
v -0.157066 1.03276e-006 0.0871266
v -0.0785329 -0.136022 0.0871266
v -0.0586669 -0.101613 0.0435633
v -0.0701243 0.12146 0.3
v -0.0701243 0.12146 0.3
v -0.0785329 0.136024 0.0871266
v 0.0701243 0.12146 0.3
v 0.0701243 0.12146 0.3
v 0.0785329 0.136024 0.0871266
v 0.140249 1.04762e-006 0.3
v 0.140249 1.04762e-006 0.3
v 0.157066 1.04649e-006 0.0871266
v 0.0701243 -0.121458 0.3
v 0.0701243 -0.121458 0.3
v 0.0785329 -0.136022 0.0871266
v -0.157066 1.03276e-006 0.0871266
v -0.140249 1.03524e-006 0.3
v -0.0701243 -0.121458 0.3
v -0.0701243 -0.121458 0.3
v -0.0785329 -0.136022 0.0871266
v -0.157066 1.03276e-006 0.0871266
v -0.0345791 0.0598938 0.590057
v -6.04783e-009 -0.000426729 0.655402
v 0.0345791 0.0598938 0.590057
v -6.04783e-009 -0.000426729 0.655402
v 0.0691582 1.04666e-006 0.590057
v -6.04783e-009 -0.000426729 0.655402
v 0.0345791 -0.0598917 0.590057
v -6.04783e-009 -0.000426729 0.655402
v -0.0345791 -0.0598917 0.590057
v -0.0691582 1.04046e-006 0.590057
v -6.04783e-009 -0.000426729 0.655402
v 0.0586669 -0.101613 4.44169e-009
v 0.117334 1.04308e-006 7.10295e-016
v 0.0586669 0.101615 -4.44169e-009
v 0.0586669 0.101615 -4.44169e-009
v -0.0586669 0.101615 -4.44169e-009
v -0.117334 1.03282e-006 2.6192e-016
v 0.0586669 -0.101613 4.44169e-009
v 0.0586669 0.101615 -4.44169e-009
v -0.117334 1.03282e-006 2.6192e-016
v -0.0586669 -0.101613 4.44169e-009
v 0.0586669 -0.101613 4.44169e-009
v -0.117334 1.03282e-006 2.6192e-016
v -0.0345791 0.0598938 0.590057
v -0.0691582 1.04046e-006 0.590057
v -0.140249 1.03524e-006 0.3
v -0.140249 1.03524e-006 0.3
v -0.0701243 0.12146 0.3
v -0.0345791 0.0598938 0.590057
v 0.0345791 0.0598938 0.590057
v -0.0345791 0.0598938 0.590057
v -0.0701243 0.12146 0.3
v -0.0701243 0.12146 0.3
v 0.0701243 0.12146 0.3
v 0.0345791 0.0598938 0.590057
v 0.0691582 1.04666e-006 0.590057
v 0.0345791 0.0598938 0.590057
v 0.0701243 0.12146 0.3
v 0.0701243 0.12146 0.3
v 0.140249 1.04762e-006 0.3
v 0.0691582 1.04666e-006 0.590057
v 0.0345791 -0.0598917 0.590057
v 0.0691582 1.04666e-006 0.590057
v 0.140249 1.04762e-006 0.3
v 0.140249 1.04762e-006 0.3
v 0.0701243 -0.121458 0.3
v 0.0345791 -0.0598917 0.590057
v -0.0345791 -0.0598917 0.590057
v 0.0345791 -0.0598917 0.590057
v 0.0701243 -0.121458 0.3
v 0.0701243 -0.121458 0.3
v -0.0701243 -0.121458 0.3
v -0.0345791 -0.0598917 0.590057
v -0.0691582 1.04046e-006 0.590057
v -0.0345791 -0.0598917 0.590057
v -0.0701243 -0.121458 0.3
v -0.0701243 -0.121458 0.3
v -0.140249 1.03524e-006 0.3
v -0.0691582 1.04046e-006 0.590057
# 144 verticies
vt 0.615489 0.479333
vt 0.932878 0.479333
vt 0.932878 0.413093
vt 0.615489 0.413093
vt 0.615856 0.47888
vt 0.933245 0.47888
vt 0.933245 0.412639
vt 0.615856 0.412639
vt 0.615289 0.479868
vt 0.932678 0.479868
vt 0.932678 0.413627
vt 0.615289 0.413627
vt 0.932878 0.479333
vt 0.932878 0.413093
vt 0.615856 0.47888
vt 0.615856 0.412639
vt 0.986616 0.33648
vt 0.561751 0.33648
vt 0.986983 0.336026
vt 0.562118 0.336026
vt 0.986416 0.337015
vt 0.561551 0.337015
vt 0.562118 0.336026
vt 0.561552 0.337015
vt 0.96387 0.0171821
vt 0.584496 0.0171821
vt 0.964237 0.0167286
vt 0.584863 0.0167286
vt 0.963671 0.0177169
vt 0.584297 0.0177169
vt 0.963871 0.0171821
vt 0.034551 0.440744
vt 0.343654 0.440744
vt 0.187447 0.83757
vt 0.0336652 0.441
vt 0.342265 0.441
vt 0.187965 0.837825
vt 0.0330105 0.443684
vt 0.342114 0.443684
vt 0.189218 0.840509
vt 0.0330921 0.440393
vt 0.343205 0.440393
vt 0.18981 0.837218
vt 0.0326556 0.441
vt 0.343274 0.441
vt 0.187965 0.837825
vt 0.0334598 0.443332
vt 0.343572 0.443332
vt 0.186855 0.840158
vt 0.62112 0.536892
vt 0.495944 0.753704
vt 0.62112 0.970515
vt 0.871472 0.970515
vt 0.996648 0.753704
vt 0.871472 0.536892
vt 0.268562 0.657024
vt 0.116122 0.657024
vt 0.0377726 0.00342892
vt 0.346912 0.00342892
vt 0.268813 0.657858
vt 0.116373 0.657858
vt 0.0380228 0.00426291
vt 0.347162 0.00426291
vt 0.269063 0.656308
vt 0.116623 0.656308
vt 0.0382731 0.00271273
vt 0.347413 0.00271273
vt 0.116122 0.657024
vt 0.0377725 0.00342892
vt 0.116372 0.657858
vt 0.0380228 0.00426288
vt 0.347162 0.00426288
vt 0.0382732 0.00271273
# 73 texture verticies
vn -0.866025 0.5 -1.09274e-008
vn -0.866025 0.5 0
vn -0.845338 0.488056 -0.217265
vn -0.779992 0.450328 -0.43453
vn 0 1 0
vn 0 0.976113 -0.217265
vn 0.866025 0.5 -2.18562e-008
vn 0.845338 0.488056 -0.217265
vn 0.866025 0.5 0
vn 0.866025 -0.5 0
vn 0.845338 -0.488056 -0.217265
vn 0.866025 -0.5 2.18562e-008
vn 0 -1 0
vn 0 -0.976113 -0.217265
vn -0.866025 -0.5 2.18549e-008
vn -0.866025 -0.5 0
vn -0.827318 0.477652 -0.295624
vn -0.827318 0.477652 -0.295624
vn 0 0.784734 -0.619832
vn -1.42031e-008 0.955304 -0.295625
vn 0.6796 0.392367 -0.619832
vn 0.827318 0.477652 -0.295624
vn 0.6796 0.392367 -0.619832
vn 0.6796 -0.392367 -0.619832
vn 0.827318 -0.477652 -0.295624
vn 0 -0.784734 -0.619832
vn 1.42031e-008 -0.955304 -0.295624
vn -0.6796 -0.392367 -0.619832
vn -0.6796 -0.392367 -0.619832
vn -0.864006 0.498834 0.0682575
vn -5.30002e-008 0.997668 0.0682575
vn 0 0.997668 0.0682575
vn 0.864006 0.498834 0.0682574
vn 0.864006 0.498834 0.0682575
vn 0.864006 -0.498834 0.0682574
vn 0.864006 -0.498834 0.0682574
vn 5.30002e-008 -0.997668 0.0682574
vn 0 -0.997668 0.0682574
vn -0.864006 -0.498834 0.0682575
vn -0.864006 -0.498834 0.0682574
vn -0.637387 0.367996 0.676991
vn 0 0.734792 0.678293
vn 0.637387 0.367996 0.676991
vn 0.639469 -0.369198 0.674368
vn 3.98395e-008 -0.7396 0.673047
vn -0.639469 -0.369198 0.674368
vn 4.53758e-015 -4.37114e-008 -1
vn 3.78484e-015 -4.37114e-008 -1
vn 3.58262e-015 -4.37114e-008 -1
vn 3.78484e-015 -4.37114e-008 -1
vn -0.847153 0.489104 0.207629
vn -0.847153 0.489104 0.20763
vn 0 0.978208 0.20763
vn -5.19664e-008 0.978208 0.20763
vn 0.847153 0.489104 0.20763
vn 0.847153 0.489104 0.20763
vn 0.847153 -0.489104 0.20763
vn 0.847153 -0.489104 0.20763
vn 5.26924e-008 -0.978208 0.20763
vn 5.19664e-008 -0.978208 0.20763
vn -0.847153 -0.489104 0.20763
vn -0.847153 -0.489104 0.207629
# 62 normals
f  8/3/3 2/2/2 1/1/1
f  1/1/1 7/4/4 8/3/3
f  9/7/6 3/6/5 32/5/5
f  34/5/5 33/8/5 9/7/6
f  10/11/8 4/10/7 35/9/7
f  37/9/9 36/12/9 10/11/8
f  11/14/11 5/13/10 38/1/10
f  40/1/12 39/4/12 11/14/11
f  12/7/14 6/6/13 41/15/13
f  43/15/13 42/16/13 12/7/14
f  46/11/15 45/10/15 44/9/15
f  49/9/16 48/12/16 47/11/16
f  14/17/17 8/3/3 7/4/4
f  7/4/4 13/18/18 14/17/17
f  15/19/20 9/7/6 50/8/19
f  52/8/19 51/20/19 15/19/20
f  16/21/22 10/11/8 53/12/21
f  55/12/23 54/22/23 16/21/22
f  17/17/25 11/14/11 56/4/24
f  58/4/24 57/18/24 17/17/25
f  18/19/27 12/7/14 59/16/26
f  61/16/26 60/23/26 18/19/27
f  64/21/28 63/11/28 62/12/28
f  67/12/29 66/24/29 65/21/29
f  27/26/30 26/25/30 14/17/17
f  14/17/17 13/18/18 27/26/30
f  68/28/31 28/27/31 15/19/20
f  15/19/20 70/20/32 69/28/32
f  71/30/33 29/29/33 16/21/22
f  16/21/22 73/22/34 72/30/34
f  74/26/35 30/31/35 17/17/25
f  17/17/25 76/18/36 75/26/36
f  77/28/37 31/27/37 18/19/27
f  18/19/27 79/23/38 78/28/38
f  82/30/39 81/29/39 80/21/39
f  85/21/40 84/24/40 83/30/40
f  25/34/41 20/33/41 19/32/41
f  87/37/42 21/36/42 86/35/42
f  89/40/43 22/39/43 88/38/43
f  91/43/44 23/42/44 90/41/44
f  93/46/45 24/45/45 92/44/45
f  96/49/46 95/48/46 94/47/46
f  99/52/47 98/51/47 97/50/47
f  102/54/48 101/53/48 100/52/48
f  105/54/49 104/52/49 103/50/49
f  108/54/50 107/50/50 106/55/50
f  111/58/51 110/57/51 109/56/51
f  114/56/52 113/59/52 112/58/52
f  117/62/53 116/61/53 115/60/53
f  120/60/54 119/63/54 118/62/54
f  123/66/55 122/65/55 121/64/55
f  126/64/56 125/67/56 124/66/56
f  129/69/57 128/68/57 127/56/57
f  132/56/58 131/59/58 130/69/58
f  135/71/59 134/70/59 133/60/59
f  138/60/60 137/72/60 136/71/60
f  141/73/61 140/65/61 139/64/61
f  144/64/62 143/67/62 142/73/62
