# 
# Wavefront OBJ file
# Converted by the DEEP Exploration 
# Right Hemisphere, LTD
# http://www.righthemisphere.com/
# 
# object ROCKET
g ROCKET
v -0.306273 4.10339e-007 6.55671e-009
v -0.153136 0.265241 -5.03731e-009
v 0.153136 0.265241 -5.03731e-009
v 0.306273 4.37114e-007 6.55671e-009
v 0.153136 -0.26524 1.81507e-008
v -0.153137 -0.26524 1.81507e-008
v -0.377145 4.06774e-007 0.102101
v -0.188572 0.326617 0.102101
v 0.188572 0.326617 0.102101
v 0.377145 4.39745e-007 0.102101
v 0.188572 -0.326617 0.102101
v -0.188572 -0.326616 0.102101
v -0.356647 4.15126e-007 1.33981
v -0.178324 0.308866 1.33981
v 0.178324 0.308866 1.33981
v 0.356647 4.46305e-007 1.33981
v 0.178324 -0.308865 1.33981
v -0.178324 -0.308865 1.33981
v -0.306273 4.23728e-007 1.44155
v -0.153136 0.265241 1.44155
v 0.153136 0.265241 1.44155
v 0.306273 4.50503e-007 1.44155
v 0.153136 -0.26524 1.44155
v -0.153137 -0.26524 1.44155
v -0.306273 4.28191e-007 2.0656
v -0.153136 0.265241 2.0656
v 0.153136 0.265241 2.0656
v 0.306273 4.54966e-007 2.0656
v 0.153136 -0.26524 2.0656
v -0.153137 -0.26524 2.0656
v -4.87639e-009 4.43521e-007 2.93552
v -0.107649 0.186455 2.45435
v -0.215299 4.3448e-007 2.45435
v 0.107649 0.186455 2.45435
v 0.215299 4.53302e-007 2.45435
v 0.107649 -0.186454 2.45435
v -0.107649 -0.186454 2.45435
v -0.153136 0.265241 -5.03731e-009
v -0.188572 0.326617 0.102101
v -0.153136 0.265241 -5.03731e-009
v 0.153136 0.265241 -5.03731e-009
v 0.188572 0.326617 0.102101
v 0.153136 0.265241 -5.03731e-009
v 0.306273 4.37114e-007 6.55671e-009
v 0.377145 4.39745e-007 0.102101
v 0.306273 4.37114e-007 6.55671e-009
v 0.153136 -0.26524 1.81507e-008
v 0.188572 -0.326617 0.102101
v 0.153136 -0.26524 1.81507e-008
v -0.153137 -0.26524 1.81507e-008
v -0.306273 4.10339e-007 6.55671e-009
v -0.377145 4.06774e-007 0.102101
v -0.377145 4.06774e-007 0.102101
v -0.188572 -0.326616 0.102101
v -0.153137 -0.26524 1.81507e-008
v -0.188572 0.326617 0.102101
v -0.178324 0.308866 1.33981
v -0.188572 0.326617 0.102101
v 0.188572 0.326617 0.102101
v 0.178324 0.308866 1.33981
v 0.188572 0.326617 0.102101
v 0.377145 4.39745e-007 0.102101
v 0.356647 4.46305e-007 1.33981
v 0.377145 4.39745e-007 0.102101
v 0.188572 -0.326617 0.102101
v 0.178324 -0.308865 1.33981
v 0.188572 -0.326617 0.102101
v -0.188572 -0.326616 0.102101
v -0.377145 4.06774e-007 0.102101
v -0.356647 4.15126e-007 1.33981
v -0.356647 4.15126e-007 1.33981
v -0.178324 -0.308865 1.33981
v -0.188572 -0.326616 0.102101
v -0.178324 0.308866 1.33981
v -0.153136 0.265241 1.44155
v -0.178324 0.308866 1.33981
v 0.178324 0.308866 1.33981
v 0.153136 0.265241 1.44155
v 0.178324 0.308866 1.33981
v 0.356647 4.46305e-007 1.33981
v 0.306273 4.50503e-007 1.44155
v 0.356647 4.46305e-007 1.33981
v 0.178324 -0.308865 1.33981
v 0.153136 -0.26524 1.44155
v 0.178324 -0.308865 1.33981
v -0.178324 -0.308865 1.33981
v -0.356647 4.15126e-007 1.33981
v -0.306273 4.23728e-007 1.44155
v -0.306273 4.23728e-007 1.44155
v -0.153137 -0.26524 1.44155
v -0.178324 -0.308865 1.33981
v -0.306273 4.23728e-007 1.44155
v -0.153136 0.265241 1.44155
v -0.306273 4.23728e-007 1.44155
v -0.153136 0.265241 1.44155
v 0.153136 0.265241 1.44155
v -0.153136 0.265241 2.0656
v -0.153136 0.265241 1.44155
v 0.153136 0.265241 1.44155
v 0.306273 4.50503e-007 1.44155
v 0.153136 0.265241 2.0656
v 0.153136 0.265241 1.44155
v 0.306273 4.50503e-007 1.44155
v 0.153136 -0.26524 1.44155
v 0.306273 4.54966e-007 2.0656
v 0.306273 4.50503e-007 1.44155
v 0.153136 -0.26524 1.44155
v -0.153137 -0.26524 1.44155
v 0.153136 -0.26524 2.0656
v 0.153136 -0.26524 1.44155
v -0.153137 -0.26524 1.44155
v -0.306273 4.23728e-007 1.44155
v -0.306273 4.28191e-007 2.0656
v -0.306273 4.28191e-007 2.0656
v -0.153137 -0.26524 2.0656
v -0.153137 -0.26524 1.44155
v -0.107649 0.186455 2.45435
v -0.153136 0.265241 2.0656
v -0.107649 0.186455 2.45435
v 0.107649 0.186455 2.45435
v 0.153136 0.265241 2.0656
v 0.107649 0.186455 2.45435
v 0.215299 4.53302e-007 2.45435
v 0.306273 4.54966e-007 2.0656
v 0.215299 4.53302e-007 2.45435
v 0.107649 -0.186454 2.45435
v 0.153136 -0.26524 2.0656
v 0.107649 -0.186454 2.45435
v -0.215299 4.3448e-007 2.45435
v -0.107649 -0.186454 2.45435
v -0.153137 -0.26524 2.0656
v -0.153137 -0.26524 2.0656
v -0.306273 4.28191e-007 2.0656
v -0.215299 4.3448e-007 2.45435
v 0.153136 -0.26524 1.81507e-008
v 0.306273 4.37114e-007 6.55671e-009
v 0.153136 0.265241 -5.03731e-009
v 0.153136 0.265241 -5.03731e-009
v -0.153136 0.265241 -5.03731e-009
v -0.306273 4.10339e-007 6.55671e-009
v 0.153136 -0.26524 1.81507e-008
v 0.153136 0.265241 -5.03731e-009
v -0.306273 4.10339e-007 6.55671e-009
v -0.153137 -0.26524 1.81507e-008
v 0.153136 -0.26524 1.81507e-008
v -0.306273 4.10339e-007 6.55671e-009
v -4.87639e-009 4.43521e-007 2.93552
v -0.107649 0.186455 2.45435
v -4.87639e-009 4.43521e-007 2.93552
v 0.107649 0.186455 2.45435
v 0.215299 4.53302e-007 2.45435
v -4.87639e-009 4.43521e-007 2.93552
v 0.107649 -0.186454 2.45435
v -0.215299 4.3448e-007 2.45435
v -4.87639e-009 4.43521e-007 2.93552
v -0.107649 -0.186454 2.45435
# 156 verticies
vt 0.0609909 0.821769
vt 0.328889 0.821769
vt 0.359885 0.76333
vt 0.029995 0.76333
vt 0.0605702 0.821439
vt 0.328468 0.821439
vt 0.359464 0.762999
vt 0.0295743 0.762999
vt 0.0617834 0.821769
vt 0.329681 0.821769
vt 0.360677 0.76333
vt 0.0307876 0.76333
vt 0.0609909 0.821769
vt 0.359885 0.76333
vt 0.029995 0.76333
vt 0.359464 0.762999
vt 0.0617835 0.821769
vt 0.360677 0.76333
vt 0.0307876 0.76333
vt 0.35092 0.0712981
vt 0.0389596 0.0712981
vt 0.350499 0.0709678
vt 0.0385389 0.0709678
vt 0.351713 0.0712981
vt 0.0397522 0.0712981
vt 0.35092 0.071298
vt 0.0389597 0.071298
vt 0.0385389 0.0709678
vt 0.351712 0.071298
vt 0.0397522 0.071298
vt 0.328889 0.0153175
vt 0.0609909 0.0153175
vt 0.328468 0.0149872
vt 0.0605702 0.0149872
vt 0.329681 0.0153175
vt 0.0617835 0.0153175
vt 0.328889 0.0153174
vt 0.0609909 0.0153174
vt 0.0605701 0.0149872
vt 0.329681 0.0153174
vt 0.0617834 0.0153174
vt 0.555721 0.476732
vt 0.757591 0.476732
vt 0.757591 0.281938
vt 0.555721 0.281938
vt 0.553139 0.477053
vt 0.755009 0.477053
vt 0.755009 0.282259
vt 0.553139 0.282259
vt 0.553086 0.477138
vt 0.754956 0.477138
vt 0.754956 0.282345
vt 0.553086 0.282345
vt 0.755009 0.477053
vt 0.755009 0.282259
vt 0.553139 0.282259
vt 0.553086 0.477138
vt 0.754956 0.477138
vt 0.72761 0.155864
vt 0.585702 0.155864
vt 0.58312 0.156185
vt 0.725028 0.156185
vt 0.583067 0.156271
vt 0.724975 0.156271
vt 0.585702 0.155864
vt 0.72761 0.155864
vt 0.725028 0.156185
vt 0.724975 0.156271
vt 0.583067 0.156271
vt 0.61865 0.530266
vt 0.492856 0.748148
vt 0.61865 0.96603
vt 0.870239 0.96603
vt 0.996033 0.748148
vt 0.870239 0.530266
vt 0.656656 -0.00552109
vt 0.654074 -0.00520012
vt 0.654021 -0.0051146
# 78 texture verticies
vn -0.742238 0.428531 -0.515213
vn -0.742238 0.428531 -0.515213
vn -0.811049 0.468259 -0.350617
vn -0.853733 0.492903 -0.167886
vn -8.33977e-008 0.857062 -0.515213
vn -7.94124e-008 0.936519 -0.350617
vn -6.77258e-008 0.857062 -0.515213
vn 0.742238 0.428531 -0.515213
vn 0.811049 0.468259 -0.350617
vn 0.742238 0.428531 -0.515213
vn 0.742238 -0.428531 -0.515213
vn 0.811049 -0.468259 -0.350617
vn -8.33977e-008 -0.857062 -0.515213
vn -1.30047e-007 -0.936519 -0.350617
vn -1.35452e-007 -0.857062 -0.515213
vn -0.742238 -0.428531 -0.515213
vn -0.742238 -0.428531 -0.515213
vn -0.857082 0.494837 0.14334
vn -0.833351 0.481136 0.272092
vn -7.90128e-008 0.999897 0.0143407
vn -8.11599e-008 0.989674 0.14334
vn -8.35539e-008 0.999897 0.0143407
vn 0.865936 0.499949 0.0143407
vn 0.857082 0.494837 0.14334
vn 0.865936 0.499949 0.0143407
vn 0.865936 -0.499949 0.0143407
vn 0.857082 -0.494837 0.14334
vn 0.865936 -0.499949 0.0143407
vn -1.58026e-007 -0.999897 0.0143407
vn -1.0795e-007 -0.989674 0.14334
vn -8.35539e-008 -0.999897 0.0143407
vn -0.865936 -0.499949 0.0143407
vn -0.865936 -0.499949 0.0143407
vn -0.795945 0.459539 0.394074
vn -0.795945 0.459539 0.394074
vn -7.68005e-008 0.919079 0.394074
vn -8.31164e-008 0.919079 0.394074
vn -8.94322e-008 0.919079 0.394074
vn 0.795945 0.459539 0.394074
vn 0.795945 0.459539 0.394074
vn 0.795946 0.459539 0.394074
vn 0.795945 -0.459539 0.394074
vn 0.795945 -0.459539 0.394074
vn 0.795945 -0.459539 0.394075
vn -7.68005e-008 -0.919079 0.394074
vn -8.31164e-008 -0.919079 0.394074
vn -8.94322e-008 -0.919079 0.394074
vn -0.795945 -0.459539 0.394074
vn -0.795945 -0.459539 0.394074
vn -0.866025 0.5 0
vn -0.864108 0.498893 0.0665044
vn -0.858331 0.495557 0.133009
vn -0.866025 0.5 -3.57583e-009
vn -9.73064e-008 1 0
vn -8.99022e-008 0.995006 0.0998123
vn 0.866025 0.5 -3.57583e-009
vn 0.861701 0.497503 0.0998124
vn 0.866025 0.5 0
vn 0.866025 -0.5 0
vn 0.861701 -0.497503 0.0998124
vn 0.866025 -0.5 3.57583e-009
vn -9.73064e-008 -1 0
vn -1.45168e-007 -0.995006 0.0998124
vn -0.866025 -0.5 3.57583e-009
vn -0.866025 -0.5 0
vn -0.837698 0.483645 0.25367
vn -0.831135 0.479856 0.280986
vn -9.53676e-008 0.980075 0.198628
vn -6.64231e-008 0.959712 0.280986
vn -6.78325e-008 0.980075 0.198628
vn 0.84877 0.490038 0.198628
vn 0.831135 0.479856 0.280986
vn 0.84877 0.490037 0.198628
vn 0.84877 -0.490037 0.198628
vn 0.831135 -0.479856 0.280986
vn 0.84877 -0.490037 0.198628
vn -9.53676e-008 -0.980075 0.198628
vn -3.77582e-007 -0.959712 0.280986
vn -2.8779e-007 -0.980075 0.198628
vn -0.84877 -0.490038 0.198628
vn -0.84877 -0.490037 0.198628
vn 7.22147e-015 -4.37114e-008 -1
vn 4.2534e-015 -4.37114e-008 -1
vn 3.04038e-015 -4.37114e-008 -1
vn 1.54652e-015 -4.37114e-008 -1
vn 2.47445e-007 4.53649e-007 1
vn -6.45357e-008 0.932442 0.361321
vn 0.807518 0.46622 0.361321
vn 0.807518 -0.46622 0.361321
vn -4.64656e-007 -0.932442 0.361321
vn -0.807518 -0.466221 0.361321
# 91 normals
f  8/3/3 2/2/2 1/1/1
f  1/1/1 7/4/4 8/3/3
f  9/7/6 3/6/5 38/5/5
f  40/5/7 39/8/7 9/7/6
f  10/11/9 4/10/8 41/9/8
f  43/9/10 42/12/10 10/11/9
f  11/14/12 5/2/11 44/13/11
f  46/13/11 45/15/11 11/14/12
f  12/16/14 6/6/13 47/5/13
f  49/5/15 48/8/15 12/16/14
f  52/18/16 51/10/16 50/17/16
f  55/17/17 54/19/17 53/18/17
f  14/20/18 8/3/3 7/4/4
f  7/4/4 13/21/19 14/20/18
f  15/22/21 9/7/6 56/8/20
f  58/8/22 57/23/22 15/22/21
f  16/24/24 10/11/9 59/12/23
f  61/12/25 60/25/25 16/24/24
f  17/26/27 11/14/12 62/15/26
f  64/15/28 63/27/28 17/26/27
f  18/22/30 12/16/14 65/8/29
f  67/8/31 66/28/31 18/22/30
f  70/29/32 69/18/32 68/19/32
f  73/19/33 72/30/33 71/29/33
f  20/31/34 14/20/18 13/21/19
f  13/21/19 19/32/35 20/31/34
f  21/33/37 15/22/21 74/23/36
f  76/23/38 75/34/38 21/33/37
f  22/35/40 16/24/24 77/25/39
f  79/25/41 78/36/41 22/35/40
f  23/37/43 17/26/27 80/27/42
f  82/27/44 81/38/44 23/37/43
f  24/33/46 18/22/30 83/28/45
f  85/28/47 84/39/47 24/33/46
f  88/40/48 87/29/48 86/30/48
f  91/30/49 90/41/49 89/40/49
f  26/44/51 93/43/50 92/42/50
f  94/42/53 25/45/52 26/44/51
f  27/48/55 96/47/54 95/46/54
f  98/46/54 97/49/54 27/48/55
f  28/52/57 100/51/56 99/50/56
f  102/50/58 101/53/58 28/52/57
f  29/44/60 104/43/59 103/42/59
f  106/42/61 105/45/61 29/44/60
f  30/55/63 108/54/62 107/46/62
f  110/46/62 109/56/62 30/55/63
f  113/52/64 112/58/64 111/57/64
f  116/57/65 115/53/65 114/52/65
f  32/59/66 26/44/51 25/45/52
f  25/45/52 33/60/67 32/59/66
f  27/48/55 118/49/68 117/61/68
f  119/61/70 34/62/69 27/48/55
f  28/52/57 121/53/71 120/63/71
f  122/63/73 35/64/72 28/52/57
f  29/44/60 124/45/74 123/65/74
f  125/65/76 36/66/75 29/44/60
f  30/55/63 127/56/77 126/61/77
f  128/61/79 37/67/78 30/55/63
f  131/53/80 130/69/80 129/68/80
f  134/68/81 133/52/81 132/53/81
f  137/72/82 136/71/82 135/70/82
f  140/74/83 139/73/83 138/72/83
f  143/74/84 142/72/84 141/70/84
f  146/74/85 145/70/85 144/75/85
f  33/60/67 31/76/86 32/59/66
f  148/61/87 147/77/87 34/62/69
f  150/63/88 149/78/88 35/64/72
f  151/65/89 31/76/86 36/66/75
f  153/61/90 152/77/90 37/67/78
f  156/69/91 155/78/91 154/68/91
