# 
# Wavefront OBJ file
# Converted by the DEEP Exploration 
# Right Hemisphere, LTD
# http://www.righthemisphere.com/
# 
# object Sphere01
g Sphere01
v -9.11395e-007 20 -209.131
v -1.16834e-006 25.8783 -206.164
v -3.77852 24.5031 -206.164
v -5.78902 21.0208 -206.164
v -5.09078 17.0608 -206.164
v -2.01051 14.4762 -206.164
v 2.01051 14.4762 -206.164
v 5.09078 17.0608 -206.164
v 5.78902 21.0208 -206.164
v 3.77851 24.5031 -206.164
v -1.30506e-006 29.0061 -198.654
v -5.78902 26.8991 -198.654
v -8.8693 21.5639 -198.654
v -7.79953 15.4969 -198.654
v -3.08027 11.537 -198.654
v 3.08028 11.537 -198.654
v 7.79953 15.4969 -198.654
v 8.86929 21.5639 -198.654
v 5.78902 26.8991 -198.654
v -1.25758e-006 27.9198 -190.114
v -5.09078 26.067 -190.114
v -7.79953 21.3753 -190.114
v -6.85879 16.0401 -190.114
v -2.70875 12.5578 -190.114
v 2.70875 12.5578 -190.114
v 6.85879 16.0401 -190.114
v 7.79952 21.3753 -190.114
v 5.09078 26.067 -190.114
v -9.11395e-007 20 -188.458
v 4.60626e-007 -10 -208.666
v 2.53721e-007 -5.26657 -206.278
v -3.04259 -6.37398 -206.278
v -4.66152 -9.17805 -206.278
v -4.09927 -12.3667 -206.278
v -1.61893 -14.448 -206.278
v 1.61893 -14.448 -206.278
v 4.09927 -12.3667 -206.278
v 4.66152 -9.17804 -206.278
v 3.04259 -6.37398 -206.278
v 1.4363e-007 -2.74797 -200.23
v -4.66152 -4.44462 -200.23
v -7.14186 -8.7407 -200.23
v -6.28044 -13.626 -200.23
v -2.48034 -16.8147 -200.23
v 2.48034 -16.8147 -200.23
v 6.28045 -13.626 -200.23
v 7.14186 -8.74069 -200.23
v 4.66152 -4.44462 -200.23
v 1.81864e-007 -3.62267 -193.353
v -4.09927 -5.11468 -193.353
v -6.28044 -8.89259 -193.353
v -5.52293 -13.1887 -193.353
v -2.18117 -15.9927 -193.353
v 2.18118 -15.9927 -193.353
v 5.52293 -13.1887 -193.353
v 6.28044 -8.89258 -193.353
v 4.09927 -5.11468 -193.353
v 4.60626e-007 -10 -192.02
v -40 -9.99998 -20.6664
v -40 -5.26655 -18.278
v -43.0426 -6.37396 -18.278
v -44.6615 -9.17803 -18.278
v -44.0993 -12.3667 -18.278
v -41.6189 -14.4479 -18.278
v -38.3811 -14.4479 -18.278
v -35.9007 -12.3667 -18.278
v -35.3385 -9.17803 -18.278
v -36.9574 -6.37396 -18.278
v -40 -2.74795 -12.2305
v -44.6615 -4.4446 -12.2305
v -47.1419 -8.74068 -12.2305
v -46.2804 -13.626 -12.2305
v -42.4803 -16.8147 -12.2304
v -37.5197 -16.8147 -12.2304
v -33.7196 -13.626 -12.2305
v -32.8582 -8.74068 -12.2305
v -35.3385 -4.4446 -12.2305
v -40 -3.62265 -5.35339
v -44.0993 -5.11466 -5.35339
v -46.2804 -8.89257 -5.35339
v -45.5229 -13.1886 -5.35339
v -42.1812 -15.9927 -5.35339
v -37.8188 -15.9927 -5.35339
v -34.4771 -13.1886 -5.35339
v -33.7196 -8.89257 -5.35339
v -35.9007 -5.11466 -5.35339
v -40 -9.99998 -4.01989
v 40 -9.99998 -20.6664
v 40 -5.26655 -18.278
v 36.9574 -6.37396 -18.278
v 35.3385 -9.17803 -18.278
v 35.9007 -12.3667 -18.278
v 38.3811 -14.4479 -18.278
v 41.6189 -14.4479 -18.278
v 44.0993 -12.3667 -18.278
v 44.6615 -9.17803 -18.278
v 43.0426 -6.37396 -18.278
v 40 -2.74795 -12.2305
v 35.3385 -4.4446 -12.2305
v 32.8582 -8.74068 -12.2305
v 33.7196 -13.626 -12.2305
v 37.5197 -16.8147 -12.2304
v 42.4804 -16.8147 -12.2304
v 46.2805 -13.626 -12.2305
v 47.1419 -8.74068 -12.2305
v 44.6615 -4.4446 -12.2305
v 40 -3.62265 -5.35339
v 35.9007 -5.11466 -5.35339
v 33.7196 -8.89257 -5.35339
v 34.4771 -13.1886 -5.35339
v 37.8188 -15.9927 -5.35339
v 42.1812 -15.9927 -5.35339
v 45.5229 -13.1886 -5.35339
v 46.2805 -8.89257 -5.35339
v 44.0993 -5.11466 -5.35339
v 40 -9.99998 -4.01989
v -5.78902 21.0208 -206.164
v -3.77852 24.5031 -206.164
v -3.77852 24.5031 -206.164
v -5.78902 26.8991 -198.654
v -5.09078 17.0608 -206.164
v -5.78902 21.0208 -206.164
v -5.78902 21.0208 -206.164
v -2.01051 14.4762 -206.164
v -5.09078 17.0608 -206.164
v -5.09078 17.0608 -206.164
v 2.01051 14.4762 -206.164
v -2.01051 14.4762 -206.164
v -2.01051 14.4762 -206.164
v 3.08028 11.537 -198.654
v -5.78902 26.8991 -198.654
v -5.78902 26.8991 -198.654
v -5.09078 26.067 -190.114
v 3.08028 11.537 -198.654
v 3.08028 11.537 -198.654
v 2.70875 12.5578 -190.114
v -7.79953 21.3753 -190.114
v -6.85879 16.0401 -190.114
v -7.79953 21.3753 -190.114
v -2.70875 12.5578 -190.114
v -6.85879 16.0401 -190.114
v 2.70875 12.5578 -190.114
v -2.70875 12.5578 -190.114
v 2.70875 12.5578 -190.114
# 144 verticies
vt 1 0.957106
vt 1 0.937583
vt 1.03222 0.940637
vt 1.05889 0.949267
vt 1.06918 0.961548
vt 1.03747 0.972522
vt 0.962526 0.972522
vt 0.930822 0.961548
vt 0.941111 0.949267
vt 0.967777 0.940637
vt 1.0432 0.926677
vt 1 0.922377
vt 0.0828597 0.939115
vt 0.0588886 0.949267
vt 0.0322224 0.940637
vt 0.0431957 0.926677
vt 0.110222 0.958017
vt 0.0691778 0.961548
vt 0.0819827 0.978418
vt 0.0374736 0.972522
vt -0.0819829 0.978418
vt -0.0374737 0.972522
vt 0.889778 0.958017
vt 0.918017 0.978418
vt 0.91714 0.939115
vt 0.956804 0.926677
vt 1.03972 0.923007
vt 1 0.918661
vt 0.0751174 0.93553
vt 0.0397235 0.923007
vt 0.0960962 0.954287
vt 0.063173 0.973364
vt -0.0631731 0.973364
vt 0.903904 0.954287
vt 0.936827 0.973364
vt 0.924883 0.93553
vt 0.960276 0.923007
vt 1 0.946459
vt 1.07512 0.93553
vt 1.0961 0.954287
vt 1.06317 0.973364
vt 0.5 0.950225
vt 0.5 0.963881
vt 0.461911 0.959246
vt 0.452855 0.949446
vt 0.465226 0.940331
vt 0.487484 0.935123
vt 0.512516 0.935123
vt 0.534774 0.940331
vt 0.547145 0.949446
vt 0.538089 0.959246
vt 0.433729 0.961025
vt 0.5 0.970031
vt 0.428597 0.944603
vt 0.450933 0.930767
vt 0.482836 0.923204
vt 0.517164 0.923204
vt 0.549067 0.930767
vt 0.571403 0.944603
vt 0.566271 0.961025
vt 0.444206 0.956489
vt 0.5 0.9645
vt 0.436848 0.941073
vt 0.455607 0.927689
vt 0.484335 0.920292
vt 0.515665 0.920292
vt 0.544393 0.927689
vt 0.563152 0.941073
vt 0.555794 0.956489
vt 0.5 0.940733
vt 0.310887 0.148065
vt 0.294049 0.140097
vt 0.294879 0.149492
vt 0.302445 0.156265
vt 0.313103 0.157962
vt 0.322977 0.154047
vt 0.328217 0.145804
vt 0.325597 0.1365
vt 0.31493 0.130875
vt 0.301791 0.132405
vt 0.286886 0.144099
vt 0.284631 0.130396
vt 0.298527 0.153596
vt 0.314113 0.155932
vt 0.328719 0.150518
vt 0.337248 0.1388
vt 0.334229 0.124956
vt 0.317502 0.116187
vt 0.296134 0.118607
vt 0.289619 0.134473
vt 0.287933 0.122944
vt 0.299847 0.142605
vt 0.313773 0.144622
vt 0.326775 0.139957
vt 0.334132 0.129985
vt 0.331167 0.11844
vt 0.31657 0.111275
vt 0.298171 0.11324
vt 0.310887 0.126684
vt 0.689112 0.148065
vt 0.705951 0.140097
vt 0.698209 0.132405
vt 0.68507 0.130875
vt 0.674402 0.1365
vt 0.671783 0.145804
vt 0.677023 0.154047
vt 0.686897 0.157962
vt 0.697555 0.156265
vt 0.70512 0.149492
vt 0.703866 0.118607
vt 0.715369 0.130396
vt 0.682498 0.116187
vt 0.665771 0.124956
vt 0.662752 0.1388
vt 0.671281 0.150518
vt 0.685887 0.155932
vt 0.701473 0.153596
vt 0.713114 0.144099
vt 0.701829 0.11324
vt 0.712067 0.122944
vt 0.68343 0.111275
vt 0.668833 0.11844
vt 0.665868 0.129985
vt 0.673225 0.139957
vt 0.686227 0.144622
vt 0.700153 0.142605
vt 0.710381 0.134473
vt 0.689112 0.126684
# 128 texture verticies
vn -1.69135e-008 -3.75855e-008 -1
vn -0.0701657 0.774202 -0.629037
vn -0.319993 0.559505 -0.764565
vn -0.443635 0.0782249 -0.892787
vn -0.390126 -0.22524 -0.892787
vn -0.154073 -0.423312 -0.892787
vn 0.407444 -0.613967 -0.676043
vn 0.705562 -0.326336 -0.629037
vn 0.750256 0.203539 -0.629037
vn 0.443898 0.638175 -0.629037
vn -0.334468 0.918944 -0.20898
vn -0.0038552 0.990882 -0.13468
vn -0.976497 0.168268 -0.13468
vn -0.806468 0.465614 -0.364435
vn -0.856201 -0.49878 -0.13468
vn -0.917081 -0.161706 -0.364435
vn -0.917081 -0.161706 -0.364435
vn -0.335279 -0.932443 -0.13468
vn -0.598582 -0.713363 -0.364435
vn -0.598582 -0.713363 -0.364435
vn 2.04028e-007 -0.97792 -0.20898
vn 0 -0.931229 -0.364435
vn 2.88315e-007 -0.931229 -0.364435
vn 0.860056 -0.492102 -0.13468
vn 0.598583 -0.713363 -0.364435
vn 0.975158 0.175862 -0.13468
vn 0.633973 0.761538 -0.13468
vn -0.291584 0.674708 0.678048
vn 0.0856241 0.808677 0.581988
vn -0.949188 0.288702 0.125271
vn -0.859905 0.496466 0.118676
vn -0.859905 0.496466 0.118676
vn -0.912695 -0.388968 0.125271
vn -0.449141 -0.884635 0.125271
vn 2.41105e-007 -0.992933 0.118676
vn 0.657523 -0.478491 0.581988
vn 0.638245 -0.760631 0.118676
vn 0.638245 -0.760631 0.118676
vn 0.81126 0.0561022 0.581988
vn 0.585399 0.564445 0.581988
vn -8.4809e-010 4.7493e-008 1
vn -0.188108 0.108604 0.976125
vn -0.213909 -0.0377179 0.976125
vn -0.139619 -0.166391 0.976125
vn 3.82365e-008 -0.217208 0.976125
vn 0.139619 -0.166391 0.976125
vn 2.25513e-008 0 -1
vn -0.0701655 0.774203 -0.629036
vn -0.551398 0.547972 -0.629036
vn -0.774625 0.0653391 -0.629036
vn -0.635396 -0.447867 -0.629036
vn -0.198859 -0.751511 -0.629036
vn 0.330727 -0.703515 -0.629036
vn 0.705562 -0.326336 -0.629036
vn 0.750257 0.203539 -0.629036
vn 0.443898 0.638175 -0.629036
vn -0.63988 0.756581 -0.13468
vn -0.00385509 0.990882 -0.13468
vn -0.976497 0.168268 -0.13468
vn -0.856201 -0.49878 -0.13468
vn -0.335279 -0.932443 -0.13468
vn 0.342524 -0.929806 -0.13468
vn 0.860056 -0.492102 -0.13468
vn 0.975158 0.175862 -0.13468
vn 0.633973 0.761538 -0.13468
vn -0.454215 0.674521 0.581988
vn 0.0856241 0.808677 0.581988
vn -0.781523 0.224749 0.581988
vn -0.743147 -0.330186 0.581988
vn -0.357044 -0.730623 0.581988
vn 0.196123 -0.789193 0.581988
vn 0.657523 -0.478491 0.581988
vn 0.81126 0.056102 0.581988
vn 0.585399 0.564444 0.581988
vn -5.08854e-009 4.07083e-008 1
vn 2.16117e-007 -1.57859e-007 -1
vn -0.0701653 0.774204 -0.629036
vn -0.551398 0.547973 -0.629036
vn -0.774626 0.0653392 -0.629036
vn -0.635397 -0.447867 -0.629036
vn -0.198859 -0.751511 -0.629036
vn 0.330728 -0.703515 -0.629036
vn 0.705563 -0.326336 -0.629036
vn 0.750257 0.203539 -0.629036
vn 0.443898 0.638176 -0.629036
vn -0.639879 0.756582 -0.13468
vn -0.00385502 0.990882 -0.13468
vn -0.976497 0.168268 -0.13468
vn -0.856201 -0.49878 -0.13468
vn -0.335279 -0.932443 -0.13468
vn 0.342525 -0.929805 -0.13468
vn 0.860056 -0.492102 -0.13468
vn 0.975158 0.175861 -0.13468
vn 0.633973 0.761538 -0.13468
vn -0.454215 0.674521 0.581988
vn 0.0856243 0.808677 0.581988
vn -0.781523 0.224749 0.581988
vn -0.743147 -0.330186 0.581988
vn -0.357044 -0.730622 0.581988
vn 0.196123 -0.789192 0.581989
vn 0.657523 -0.478491 0.581988
vn 0.81126 0.0561018 0.581988
vn 0.585399 0.564444 0.581988
vn 5.6822e-008 1.01771e-007 1
vn -3.19477e-008 -1.42825e-007 -1
vn -0.0701655 0.774203 -0.629036
vn -0.551399 0.547972 -0.629036
vn -0.774626 0.065339 -0.629036
vn -0.635397 -0.447867 -0.629036
vn -0.198859 -0.751511 -0.629036
vn 0.330727 -0.703515 -0.629036
vn 0.705563 -0.326336 -0.629036
vn 0.750257 0.203539 -0.629036
vn -0.63988 0.756581 -0.13468
vn -0.00385521 0.990882 -0.13468
vn -0.976497 0.168268 -0.13468
vn -0.856201 -0.498779 -0.13468
vn -0.335279 -0.932443 -0.13468
vn 0.342524 -0.929806 -0.13468
vn 0.860056 -0.492102 -0.13468
vn 0.975158 0.175862 -0.13468
vn 0.633973 0.761538 -0.13468
vn -0.454215 0.674521 0.581988
vn 0.0856241 0.808677 0.581988
vn -0.781523 0.224749 0.581988
vn -0.743147 -0.330186 0.581988
vn -0.357044 -0.730622 0.581989
vn 0.196123 -0.789193 0.581989
vn 0.657523 -0.478491 0.581988
vn 0.81126 0.0561023 0.581988
vn 0.585399 0.564445 0.581988
vn -4.32526e-008 1.62833e-007 1
# 132 normals
f  3/3/3 2/2/2 1/1/1
f  4/4/4 3/3/3 1/1/1
f  5/5/5 4/4/4 1/1/1
f  6/6/6 5/5/5 1/1/1
f  7/7/7 6/6/6 1/1/1
f  8/8/8 7/7/7 1/1/1
f  9/9/9 8/8/8 1/1/1
f  10/10/10 9/9/9 1/1/1
f  2/2/2 10/10/10 1/1/1
f  2/2/2 3/3/3 12/11/11
f  12/11/11 11/12/12 2/2/2
f  118/15/14 117/14/14 13/13/13
f  13/13/13 120/16/14 119/15/14
f  122/14/16 121/18/16 14/17/15
f  14/17/15 13/13/13 123/14/17
f  125/18/19 124/20/19 15/19/18
f  15/19/18 14/17/15 126/18/20
f  128/20/22 127/22/22 16/21/21
f  16/21/21 15/19/18 129/20/23
f  7/7/7 8/8/8 17/23/24
f  17/23/24 130/24/25 7/7/7
f  8/8/8 9/9/9 18/25/26
f  18/25/26 17/23/24 8/8/8
f  9/9/9 10/10/10 19/26/27
f  19/26/27 18/25/26 9/9/9
f  10/10/10 2/2/2 11/12/12
f  11/12/12 19/26/27 10/10/10
f  11/12/12 12/11/11 21/27/28
f  21/27/28 20/28/29 11/12/12
f  131/16/31 13/13/13 22/29/30
f  22/29/30 133/30/32 132/16/32
f  13/13/13 14/17/15 23/31/33
f  23/31/33 22/29/30 13/13/13
f  14/17/15 15/19/18 24/32/34
f  24/32/34 23/31/33 14/17/15
f  15/19/18 16/21/21 25/33/35
f  25/33/35 24/32/34 15/19/18
f  134/24/37 17/23/24 26/34/36
f  26/34/36 136/35/38 135/24/38
f  17/23/24 18/25/26 27/36/39
f  27/36/39 26/34/36 17/23/24
f  18/25/26 19/26/27 28/37/40
f  28/37/40 27/36/39 18/25/26
f  19/26/27 11/12/12 20/28/29
f  20/28/29 28/37/40 19/26/27
f  20/28/29 21/27/28 29/38/41
f  21/27/28 137/39/42 29/38/41
f  139/39/43 138/40/43 29/38/41
f  141/40/44 140/41/44 29/38/41
f  143/41/45 142/35/45 29/38/41
f  144/35/46 26/34/36 29/38/41
f  26/34/36 27/36/39 29/38/41
f  27/36/39 28/37/40 29/38/41
f  28/37/40 20/28/29 29/38/41
f  32/44/49 31/43/48 30/42/47
f  33/45/50 32/44/49 30/42/47
f  34/46/51 33/45/50 30/42/47
f  35/47/52 34/46/51 30/42/47
f  36/48/53 35/47/52 30/42/47
f  37/49/54 36/48/53 30/42/47
f  38/50/55 37/49/54 30/42/47
f  39/51/56 38/50/55 30/42/47
f  31/43/48 39/51/56 30/42/47
f  31/43/48 32/44/49 41/52/57
f  41/52/57 40/53/58 31/43/48
f  32/44/49 33/45/50 42/54/59
f  42/54/59 41/52/57 32/44/49
f  33/45/50 34/46/51 43/55/60
f  43/55/60 42/54/59 33/45/50
f  34/46/51 35/47/52 44/56/61
f  44/56/61 43/55/60 34/46/51
f  35/47/52 36/48/53 45/57/62
f  45/57/62 44/56/61 35/47/52
f  36/48/53 37/49/54 46/58/63
f  46/58/63 45/57/62 36/48/53
f  37/49/54 38/50/55 47/59/64
f  47/59/64 46/58/63 37/49/54
f  38/50/55 39/51/56 48/60/65
f  48/60/65 47/59/64 38/50/55
f  39/51/56 31/43/48 40/53/58
f  40/53/58 48/60/65 39/51/56
f  40/53/58 41/52/57 50/61/66
f  50/61/66 49/62/67 40/53/58
f  41/52/57 42/54/59 51/63/68
f  51/63/68 50/61/66 41/52/57
f  42/54/59 43/55/60 52/64/69
f  52/64/69 51/63/68 42/54/59
f  43/55/60 44/56/61 53/65/70
f  53/65/70 52/64/69 43/55/60
f  44/56/61 45/57/62 54/66/71
f  54/66/71 53/65/70 44/56/61
f  45/57/62 46/58/63 55/67/72
f  55/67/72 54/66/71 45/57/62
f  46/58/63 47/59/64 56/68/73
f  56/68/73 55/67/72 46/58/63
f  47/59/64 48/60/65 57/69/74
f  57/69/74 56/68/73 47/59/64
f  48/60/65 40/53/58 49/62/67
f  49/62/67 57/69/74 48/60/65
f  49/62/67 50/61/66 58/70/75
f  50/61/66 51/63/68 58/70/75
f  51/63/68 52/64/69 58/70/75
f  52/64/69 53/65/70 58/70/75
f  53/65/70 54/66/71 58/70/75
f  54/66/71 55/67/72 58/70/75
f  55/67/72 56/68/73 58/70/75
f  56/68/73 57/69/74 58/70/75
f  57/69/74 49/62/67 58/70/75
f  61/73/78 60/72/77 59/71/76
f  62/74/79 61/73/78 59/71/76
f  63/75/80 62/74/79 59/71/76
f  64/76/81 63/75/80 59/71/76
f  65/77/82 64/76/81 59/71/76
f  66/78/83 65/77/82 59/71/76
f  67/79/84 66/78/83 59/71/76
f  68/80/85 67/79/84 59/71/76
f  60/72/77 68/80/85 59/71/76
f  60/72/77 61/73/78 70/81/86
f  70/81/86 69/82/87 60/72/77
f  61/73/78 62/74/79 71/83/88
f  71/83/88 70/81/86 61/73/78
f  62/74/79 63/75/80 72/84/89
f  72/84/89 71/83/88 62/74/79
f  63/75/80 64/76/81 73/85/90
f  73/85/90 72/84/89 63/75/80
f  64/76/81 65/77/82 74/86/91
f  74/86/91 73/85/90 64/76/81
f  65/77/82 66/78/83 75/87/92
f  75/87/92 74/86/91 65/77/82
f  66/78/83 67/79/84 76/88/93
f  76/88/93 75/87/92 66/78/83
f  67/79/84 68/80/85 77/89/94
f  77/89/94 76/88/93 67/79/84
f  68/80/85 60/72/77 69/82/87
f  69/82/87 77/89/94 68/80/85
f  69/82/87 70/81/86 79/90/95
f  79/90/95 78/91/96 69/82/87
f  70/81/86 71/83/88 80/92/97
f  80/92/97 79/90/95 70/81/86
f  71/83/88 72/84/89 81/93/98
f  81/93/98 80/92/97 71/83/88
f  72/84/89 73/85/90 82/94/99
f  82/94/99 81/93/98 72/84/89
f  73/85/90 74/86/91 83/95/100
f  83/95/100 82/94/99 73/85/90
f  74/86/91 75/87/92 84/96/101
f  84/96/101 83/95/100 74/86/91
f  75/87/92 76/88/93 85/97/102
f  85/97/102 84/96/101 75/87/92
f  76/88/93 77/89/94 86/98/103
f  86/98/103 85/97/102 76/88/93
f  77/89/94 69/82/87 78/91/96
f  78/91/96 86/98/103 77/89/94
f  78/91/96 79/90/95 87/99/104
f  79/90/95 80/92/97 87/99/104
f  80/92/97 81/93/98 87/99/104
f  81/93/98 82/94/99 87/99/104
f  82/94/99 83/95/100 87/99/104
f  83/95/100 84/96/101 87/99/104
f  84/96/101 85/97/102 87/99/104
f  85/97/102 86/98/103 87/99/104
f  86/98/103 78/91/96 87/99/104
f  90/102/107 89/101/106 88/100/105
f  91/103/108 90/102/107 88/100/105
f  92/104/109 91/103/108 88/100/105
f  93/105/110 92/104/109 88/100/105
f  94/106/111 93/105/110 88/100/105
f  95/107/112 94/106/111 88/100/105
f  96/108/113 95/107/112 88/100/105
f  97/109/85 96/108/113 88/100/105
f  89/101/106 97/109/85 88/100/105
f  89/101/106 90/102/107 99/110/114
f  99/110/114 98/111/115 89/101/106
f  90/102/107 91/103/108 100/112/116
f  100/112/116 99/110/114 90/102/107
f  91/103/108 92/104/109 101/113/117
f  101/113/117 100/112/116 91/103/108
f  92/104/109 93/105/110 102/114/118
f  102/114/118 101/113/117 92/104/109
f  93/105/110 94/106/111 103/115/119
f  103/115/119 102/114/118 93/105/110
f  94/106/111 95/107/112 104/116/120
f  104/116/120 103/115/119 94/106/111
f  95/107/112 96/108/113 105/117/121
f  105/117/121 104/116/120 95/107/112
f  96/108/113 97/109/85 106/118/122
f  106/118/122 105/117/121 96/108/113
f  97/109/85 89/101/106 98/111/115
f  98/111/115 106/118/122 97/109/85
f  98/111/115 99/110/114 108/119/123
f  108/119/123 107/120/124 98/111/115
f  99/110/114 100/112/116 109/121/125
f  109/121/125 108/119/123 99/110/114
f  100/112/116 101/113/117 110/122/126
f  110/122/126 109/121/125 100/112/116
f  101/113/117 102/114/118 111/123/127
f  111/123/127 110/122/126 101/113/117
f  102/114/118 103/115/119 112/124/128
f  112/124/128 111/123/127 102/114/118
f  103/115/119 104/116/120 113/125/129
f  113/125/129 112/124/128 103/115/119
f  104/116/120 105/117/121 114/126/130
f  114/126/130 113/125/129 104/116/120
f  105/117/121 106/118/122 115/127/131
f  115/127/131 114/126/130 105/117/121
f  106/118/122 98/111/115 107/120/124
f  107/120/124 115/127/131 106/118/122
f  107/120/124 108/119/123 116/128/132
f  108/119/123 109/121/125 116/128/132
f  109/121/125 110/122/126 116/128/132
f  110/122/126 111/123/127 116/128/132
f  111/123/127 112/124/128 116/128/132
f  112/124/128 113/125/129 116/128/132
f  113/125/129 114/126/130 116/128/132
f  114/126/130 115/127/131 116/128/132
f  115/127/131 107/120/124 116/128/132
