# 
# Wavefront OBJ file
# Converted by the DEEP Exploration 
# Right Hemisphere, LTD
# http://www.righthemisphere.com/
# 
# object Sphere02
g Sphere02
v -8.74228e-007 20 -214.501
v -1.22316e-006 27.9826 -210.473
v -5.13113 26.115 -210.473
v -7.86135 21.3862 -210.473
v -6.91315 16.0087 -210.473
v -2.73022 12.4988 -210.473
v 2.73022 12.4988 -210.473
v 6.91315 16.0087 -210.473
v 7.86134 21.3862 -210.473
v 5.13113 26.115 -210.473
v -1.40882e-006 32.2301 -200.274
v -7.86135 29.3688 -200.274
v -12.0443 22.1237 -200.274
v -10.5916 13.885 -200.274
v -4.18293 8.50748 -200.274
v 4.18294 8.50748 -200.274
v 10.5916 13.885 -200.274
v 12.0443 22.1237 -200.274
v 7.86134 29.3688 -200.274
v -1.34434e-006 30.755 -188.676
v -6.91315 28.2388 -188.676
v -10.5916 21.8676 -188.676
v -9.31406 14.6225 -188.676
v -3.67841 9.89365 -188.676
v 3.67841 9.89365 -188.676
v 9.31406 14.6225 -188.676
v 10.5916 21.8676 -188.676
v 6.91315 28.2388 -188.676
v -8.74228e-007 20 -186.427
v 4.37114e-007 -10 -213.287
v 1.56143e-007 -3.57212 -210.043
v -4.13176 -5.07596 -210.043
v -6.33022 -8.88381 -210.043
v -5.5667 -13.2139 -210.043
v -2.19846 -16.0402 -210.043
v 2.19847 -16.0402 -210.043
v 5.56671 -13.2139 -210.043
v 6.33022 -8.88381 -210.043
v 4.13176 -5.07596 -210.043
v 6.64077e-009 -0.151922 -201.831
v -6.33022 -2.45593 -201.831
v -9.69846 -8.2899 -201.831
v -8.52868 -14.924 -201.831
v -3.36824 -19.2542 -201.831
v 3.36824 -19.2542 -201.831
v 8.52869 -14.924 -201.831
v 9.69846 -8.2899 -201.831
v 6.33022 -2.45593 -201.831
v 5.85622e-008 -1.33974 -192.492
v -5.5667 -3.36586 -192.492
v -8.52868 -8.49616 -192.492
v -7.5 -14.3301 -192.492
v -2.96198 -18.138 -192.492
v 2.96198 -18.138 -192.492
v 7.5 -14.3301 -192.492
v 8.52869 -8.49616 -192.492
v 5.5667 -3.36586 -192.492
v 4.37114e-007 -10 -190.681
v -40 -9.99999 -25.2868
v -40 -3.57211 -22.0434
v -44.1318 -5.07595 -22.0434
v -46.3302 -8.8838 -22.0434
v -45.5667 -13.2139 -22.0434
v -42.1985 -16.0402 -22.0434
v -37.8015 -16.0402 -22.0434
v -34.4333 -13.2139 -22.0434
v -33.6698 -8.8838 -22.0434
v -35.8682 -5.07595 -22.0434
v -40 -0.151911 -13.831
v -46.3302 -2.45592 -13.831
v -49.6985 -8.28989 -13.831
v -48.5287 -14.924 -13.831
v -43.3682 -19.2542 -13.831
v -36.6318 -19.2542 -13.831
v -31.4713 -14.924 -13.831
v -30.3015 -8.28988 -13.831
v -33.6698 -2.45592 -13.831
v -40 -1.33973 -4.49208
v -45.5667 -3.36585 -4.49208
v -48.5287 -8.49615 -4.49208
v -47.5 -14.3301 -4.49208
v -42.962 -18.138 -4.49208
v -37.038 -18.138 -4.49208
v -32.5 -14.3301 -4.49208
v -31.4713 -8.49615 -4.49208
v -34.4333 -3.36585 -4.49208
v -40 -9.99999 -2.68122
v 40 -9.99999 -25.2868
v 40 -3.57211 -22.0434
v 35.8682 -5.07595 -22.0434
v 33.6698 -8.8838 -22.0434
v 34.4333 -13.2139 -22.0434
v 37.8015 -16.0402 -22.0434
v 42.1985 -16.0402 -22.0434
v 45.5667 -13.2139 -22.0434
v 46.3302 -8.8838 -22.0434
v 44.1318 -5.07595 -22.0434
v 40 -0.151911 -13.831
v 33.6698 -2.45592 -13.831
v 30.3015 -8.28989 -13.831
v 31.4713 -14.924 -13.831
v 36.6318 -19.2542 -13.831
v 43.3682 -19.2542 -13.831
v 48.5287 -14.924 -13.831
v 49.6985 -8.28988 -13.831
v 46.3302 -2.45592 -13.831
v 40 -1.33973 -4.49208
v 34.4333 -3.36585 -4.49208
v 31.4713 -8.49615 -4.49208
v 32.5 -14.3301 -4.49208
v 37.038 -18.138 -4.49208
v 42.962 -18.138 -4.49208
v 47.5 -14.3301 -4.49208
v 48.5287 -8.49615 -4.49208
v 45.5667 -3.36585 -4.49208
v 40 -9.99999 -2.68122
v -7.86135 21.3862 -210.473
v -5.13113 26.115 -210.473
v -5.13113 26.115 -210.473
v -7.86135 29.3688 -200.274
v -6.91315 16.0087 -210.473
v -7.86135 21.3862 -210.473
v -7.86135 21.3862 -210.473
v -2.73022 12.4988 -210.473
v -6.91315 16.0087 -210.473
v -6.91315 16.0087 -210.473
v 2.73022 12.4988 -210.473
v -2.73022 12.4988 -210.473
v -2.73022 12.4988 -210.473
v 4.18294 8.50748 -200.274
v -7.86135 29.3688 -200.274
v -7.86135 29.3688 -200.274
v -6.91315 28.2388 -188.676
v 4.18294 8.50748 -200.274
v 4.18294 8.50748 -200.274
v 3.67841 9.89365 -188.676
v -10.5916 21.8676 -188.676
v -9.31406 14.6225 -188.676
v -10.5916 21.8676 -188.676
v -3.67841 9.89365 -188.676
v -9.31406 14.6225 -188.676
v 3.67841 9.89365 -188.676
v -3.67841 9.89365 -188.676
v 3.67841 9.89365 -188.676
# 144 verticies
vt 1 0.959608
vt 1 0.933815
vt 1.0407 0.937436
vt 1.07728 0.947843
vt 1.09996 0.963402
vt 1.06786 0.979403
vt 0.932144 0.979403
vt 0.900045 0.963402
vt 0.922724 0.947843
vt 0.959303 0.937436
vt 1.05267 0.917875
vt 1 0.91287
vt 0.104464 0.932507
vt 0.0772758 0.947843
vt 0.0406972 0.937436
vt 0.052671 0.917875
vt 0.152972 0.955441
vt 0.0999554 0.963402
vt 0.178413 0.983887
vt 0.0678563 0.979403
vt -0.178413 0.983887
vt -0.0678564 0.979403
vt 0.847028 0.955441
vt 0.821587 0.983887
vt 0.895536 0.932507
vt 0.947329 0.917875
vt 1.04898 0.911629
vt 1 0.906347
vt 0.0959839 0.927081
vt 0.0489778 0.911629
vt 0.135742 0.951234
vt 0.131124 0.980101
vt -0.131124 0.980101
vt 0.864258 0.951234
vt 0.868876 0.980101
vt 0.904016 0.927081
vt 0.951022 0.911629
vt 1 0.945288
vt 1.09598 0.927081
vt 1.13574 0.951234
vt 1.13112 0.980101
vt 0.5 0.95028
vt 0.5 0.968539
vt 0.445384 0.961658
vt 0.437827 0.948301
vt 0.456174 0.936616
vt 0.484518 0.930126
vt 0.515482 0.930126
vt 0.543826 0.936616
vt 0.562173 0.948301
vt 0.554616 0.961658
vt 0.401973 0.962764
vt 0.5 0.977371
vt 0.407566 0.940364
vt 0.439672 0.922863
vt 0.479293 0.91356
vt 0.520707 0.91356
vt 0.560328 0.922863
vt 0.592434 0.940364
vt 0.598027 0.962764
vt 0.418157 0.957321
vt 0.5 0.970388
vt 0.417645 0.935487
vt 0.444966 0.917919
vt 0.480949 0.908505
vt 0.519051 0.908505
vt 0.555034 0.917919
vt 0.582355 0.935487
vt 0.581843 0.957321
vt 0.5 0.936907
vt 0.312226 0.152476
vt 0.289214 0.141561
vt 0.290787 0.154417
vt 0.300987 0.163464
vt 0.314951 0.16577
vt 0.328045 0.160721
vt 0.335537 0.149729
vt 0.332714 0.136809
vt 0.318163 0.128636
vt 0.299637 0.130724
vt 0.280351 0.147061
vt 0.276181 0.128699
vt 0.296 0.159366
vt 0.316134 0.162435
vt 0.335256 0.155681
vt 0.347491 0.140499
vt 0.345083 0.121584
vt 0.322217 0.108801
vt 0.291323 0.112141
vt 0.283895 0.134027
vt 0.280757 0.11879
vt 0.297664 0.144486
vt 0.315741 0.147124
vt 0.332837 0.141335
vt 0.343387 0.128529
vt 0.340672 0.113016
vt 0.320722 0.102848
vt 0.29436 0.105477
vt 0.312226 0.123447
vt 0.687774 0.152476
vt 0.710786 0.141561
vt 0.700363 0.130724
vt 0.681837 0.128636
vt 0.667286 0.136809
vt 0.664463 0.149729
vt 0.671955 0.160721
vt 0.685049 0.16577
vt 0.699013 0.163464
vt 0.709213 0.154417
vt 0.708677 0.112141
vt 0.723819 0.128699
vt 0.677783 0.108801
vt 0.654917 0.121584
vt 0.652509 0.140499
vt 0.664744 0.155681
vt 0.683866 0.162435
vt 0.704 0.159366
vt 0.719649 0.147061
vt 0.70564 0.105477
vt 0.719243 0.11879
vt 0.679278 0.102848
vt 0.659328 0.113016
vt 0.656613 0.128529
vt 0.667163 0.141335
vt 0.684259 0.147124
vt 0.702336 0.144486
vt 0.716105 0.134027
vt 0.687774 0.123447
# 128 texture verticies
vn 1.87927e-008 -7.14124e-007 -1
vn -0.0701657 0.774202 -0.629037
vn -0.319992 0.559504 -0.764565
vn -0.443635 0.0782247 -0.892787
vn -0.390125 -0.22524 -0.892787
vn -0.154072 -0.423313 -0.892787
vn 0.407444 -0.613967 -0.676043
vn 0.705562 -0.326336 -0.629037
vn 0.750256 0.203539 -0.629037
vn 0.443897 0.638175 -0.629037
vn -0.334468 0.918944 -0.20898
vn -0.0038552 0.990882 -0.13468
vn -0.976497 0.168268 -0.13468
vn -0.806468 0.465614 -0.364435
vn -0.806468 0.465614 -0.364435
vn -0.856201 -0.49878 -0.13468
vn -0.917081 -0.161706 -0.364435
vn -0.917081 -0.161706 -0.364435
vn -0.335279 -0.932443 -0.13468
vn -0.598581 -0.713363 -0.364435
vn -0.598582 -0.713363 -0.364435
vn 1.30824e-007 -0.97792 -0.208981
vn 1.62641e-007 -0.931229 -0.364435
vn 1.06156e-007 -0.931229 -0.364435
vn 0.860056 -0.492102 -0.13468
vn 0.598583 -0.713362 -0.364435
vn 0.975158 0.175862 -0.13468
vn 0.633973 0.761538 -0.13468
vn -0.291584 0.674708 0.678048
vn 0.0856243 0.808677 0.581988
vn -0.949188 0.288702 0.125271
vn -0.859905 0.496466 0.118676
vn -0.859905 0.496466 0.118676
vn -0.912695 -0.388968 0.125271
vn -0.449141 -0.884635 0.125271
vn 1.20953e-007 -0.992933 0.118676
vn 0.657523 -0.478491 0.581988
vn 0.638245 -0.760631 0.118676
vn 0.638245 -0.760631 0.118676
vn 0.81126 0.0561021 0.581988
vn 0.5854 0.564444 0.581988
vn 0 3.05312e-008 1
vn -0.188108 0.108604 0.976125
vn -0.213908 -0.0377178 0.976125
vn -0.139619 -0.166391 0.976125
vn 2.81569e-008 -0.217208 0.976125
vn 0.139619 -0.166391 0.976125
vn 4.88611e-008 -1.50342e-008 -1
vn -0.0701656 0.774202 -0.629037
vn -0.551398 0.547972 -0.629037
vn -0.774625 0.065339 -0.629037
vn -0.635396 -0.447867 -0.629037
vn -0.198859 -0.75151 -0.629037
vn 0.330727 -0.703514 -0.629037
vn 0.705562 -0.326336 -0.629037
vn 0.750256 0.203539 -0.629037
vn 0.443898 0.638175 -0.629037
vn -0.63988 0.756581 -0.13468
vn -0.00385516 0.990882 -0.13468
vn -0.976497 0.168268 -0.13468
vn -0.856201 -0.49878 -0.13468
vn -0.335279 -0.932443 -0.13468
vn 0.342524 -0.929806 -0.13468
vn 0.860056 -0.492102 -0.13468
vn 0.975158 0.175862 -0.13468
vn 0.633973 0.761538 -0.13468
vn -0.454216 0.674521 0.581988
vn 0.0856242 0.808677 0.581988
vn -0.781523 0.224749 0.581988
vn -0.743147 -0.330186 0.581988
vn -0.357044 -0.730623 0.581988
vn 0.196123 -0.789193 0.581988
vn 0.657523 -0.478491 0.581988
vn 0.81126 0.0561021 0.581988
vn 0.585399 0.564444 0.581988
vn -2.54427e-009 2.37465e-008 1
vn -1.69135e-008 -1.54101e-007 -1
vn -0.0701657 0.774203 -0.629037
vn -0.551398 0.547972 -0.629037
vn -0.774625 0.065339 -0.629037
vn -0.635396 -0.447867 -0.629037
vn -0.198859 -0.751511 -0.629036
vn 0.330727 -0.703514 -0.629037
vn 0.705562 -0.326336 -0.629037
vn 0.750257 0.203539 -0.629037
vn 0.443898 0.638175 -0.629037
vn -0.63988 0.756581 -0.13468
vn -0.00385532 0.990882 -0.13468
vn -0.976497 0.168268 -0.13468
vn -0.856201 -0.49878 -0.13468
vn -0.335279 -0.932443 -0.13468
vn 0.342524 -0.929806 -0.13468
vn 0.860056 -0.492102 -0.13468
vn 0.975158 0.175861 -0.13468
vn 0.633973 0.761537 -0.13468
vn -0.454215 0.674521 0.581988
vn 0.0856242 0.808677 0.581988
vn -0.781523 0.224749 0.581988
vn -0.743147 -0.330186 0.581988
vn -0.357044 -0.730622 0.581988
vn 0.196123 -0.789193 0.581988
vn 0.657522 -0.478491 0.581988
vn 0.81126 0.0561018 0.581988
vn 0.585399 0.564444 0.581988
vn 0 8.65052e-008 1
vn 9.02052e-008 -1.27791e-007 -1
vn -0.0701655 0.774203 -0.629037
vn -0.551398 0.547972 -0.629037
vn -0.774625 0.0653389 -0.629037
vn -0.635396 -0.447867 -0.629037
vn -0.198859 -0.751511 -0.629037
vn 0.330727 -0.703515 -0.629037
vn 0.705562 -0.326336 -0.629037
vn 0.750256 0.203539 -0.629037
vn 0.443898 0.638175 -0.629037
vn -0.63988 0.756581 -0.13468
vn -0.0038551 0.990882 -0.13468
vn -0.976497 0.168268 -0.13468
vn -0.856201 -0.49878 -0.13468
vn -0.335279 -0.932443 -0.13468
vn 0.342524 -0.929806 -0.13468
vn 0.860056 -0.492102 -0.13468
vn 0.975158 0.175862 -0.13468
vn 0.633973 0.761538 -0.13468
vn -0.454215 0.674521 0.581988
vn 0.0856243 0.808677 0.581988
vn -0.781523 0.224749 0.581988
vn -0.743147 -0.330186 0.581988
vn -0.357044 -0.730622 0.581988
vn 0.657522 -0.478491 0.581988
vn 0.81126 0.0561019 0.581988
vn 0.585399 0.564444 0.581988
vn 8.4809e-010 1.01771e-007 1
# 133 normals
f  3/3/3 2/2/2 1/1/1
f  4/4/4 3/3/3 1/1/1
f  5/5/5 4/4/4 1/1/1
f  6/6/6 5/5/5 1/1/1
f  7/7/7 6/6/6 1/1/1
f  8/8/8 7/7/7 1/1/1
f  9/9/9 8/8/8 1/1/1
f  10/10/10 9/9/9 1/1/1
f  2/2/2 10/10/10 1/1/1
f  2/2/2 3/3/3 12/11/11
f  12/11/11 11/12/12 2/2/2
f  118/15/14 117/14/14 13/13/13
f  13/13/13 120/16/15 119/15/15
f  122/14/17 121/18/17 14/17/16
f  14/17/16 13/13/13 123/14/18
f  125/18/20 124/20/20 15/19/19
f  15/19/19 14/17/16 126/18/21
f  128/20/23 127/22/23 16/21/22
f  16/21/22 15/19/19 129/20/24
f  7/7/7 8/8/8 17/23/25
f  17/23/25 130/24/26 7/7/7
f  8/8/8 9/9/9 18/25/27
f  18/25/27 17/23/25 8/8/8
f  9/9/9 10/10/10 19/26/28
f  19/26/28 18/25/27 9/9/9
f  10/10/10 2/2/2 11/12/12
f  11/12/12 19/26/28 10/10/10
f  11/12/12 12/11/11 21/27/29
f  21/27/29 20/28/30 11/12/12
f  131/16/32 13/13/13 22/29/31
f  22/29/31 133/30/33 132/16/33
f  13/13/13 14/17/16 23/31/34
f  23/31/34 22/29/31 13/13/13
f  14/17/16 15/19/19 24/32/35
f  24/32/35 23/31/34 14/17/16
f  15/19/19 16/21/22 25/33/36
f  25/33/36 24/32/35 15/19/19
f  134/24/38 17/23/25 26/34/37
f  26/34/37 136/35/39 135/24/39
f  17/23/25 18/25/27 27/36/40
f  27/36/40 26/34/37 17/23/25
f  18/25/27 19/26/28 28/37/41
f  28/37/41 27/36/40 18/25/27
f  19/26/28 11/12/12 20/28/30
f  20/28/30 28/37/41 19/26/28
f  20/28/30 21/27/29 29/38/42
f  21/27/29 137/39/43 29/38/42
f  139/39/44 138/40/44 29/38/42
f  141/40/45 140/41/45 29/38/42
f  143/41/46 142/35/46 29/38/42
f  144/35/47 26/34/37 29/38/42
f  26/34/37 27/36/40 29/38/42
f  27/36/40 28/37/41 29/38/42
f  28/37/41 20/28/30 29/38/42
f  32/44/50 31/43/49 30/42/48
f  33/45/51 32/44/50 30/42/48
f  34/46/52 33/45/51 30/42/48
f  35/47/53 34/46/52 30/42/48
f  36/48/54 35/47/53 30/42/48
f  37/49/55 36/48/54 30/42/48
f  38/50/56 37/49/55 30/42/48
f  39/51/57 38/50/56 30/42/48
f  31/43/49 39/51/57 30/42/48
f  31/43/49 32/44/50 41/52/58
f  41/52/58 40/53/59 31/43/49
f  32/44/50 33/45/51 42/54/60
f  42/54/60 41/52/58 32/44/50
f  33/45/51 34/46/52 43/55/61
f  43/55/61 42/54/60 33/45/51
f  34/46/52 35/47/53 44/56/62
f  44/56/62 43/55/61 34/46/52
f  35/47/53 36/48/54 45/57/63
f  45/57/63 44/56/62 35/47/53
f  36/48/54 37/49/55 46/58/64
f  46/58/64 45/57/63 36/48/54
f  37/49/55 38/50/56 47/59/65
f  47/59/65 46/58/64 37/49/55
f  38/50/56 39/51/57 48/60/66
f  48/60/66 47/59/65 38/50/56
f  39/51/57 31/43/49 40/53/59
f  40/53/59 48/60/66 39/51/57
f  40/53/59 41/52/58 50/61/67
f  50/61/67 49/62/68 40/53/59
f  41/52/58 42/54/60 51/63/69
f  51/63/69 50/61/67 41/52/58
f  42/54/60 43/55/61 52/64/70
f  52/64/70 51/63/69 42/54/60
f  43/55/61 44/56/62 53/65/71
f  53/65/71 52/64/70 43/55/61
f  44/56/62 45/57/63 54/66/72
f  54/66/72 53/65/71 44/56/62
f  45/57/63 46/58/64 55/67/73
f  55/67/73 54/66/72 45/57/63
f  46/58/64 47/59/65 56/68/74
f  56/68/74 55/67/73 46/58/64
f  47/59/65 48/60/66 57/69/75
f  57/69/75 56/68/74 47/59/65
f  48/60/66 40/53/59 49/62/68
f  49/62/68 57/69/75 48/60/66
f  49/62/68 50/61/67 58/70/76
f  50/61/67 51/63/69 58/70/76
f  51/63/69 52/64/70 58/70/76
f  52/64/70 53/65/71 58/70/76
f  53/65/71 54/66/72 58/70/76
f  54/66/72 55/67/73 58/70/76
f  55/67/73 56/68/74 58/70/76
f  56/68/74 57/69/75 58/70/76
f  57/69/75 49/62/68 58/70/76
f  61/73/79 60/72/78 59/71/77
f  62/74/80 61/73/79 59/71/77
f  63/75/81 62/74/80 59/71/77
f  64/76/82 63/75/81 59/71/77
f  65/77/83 64/76/82 59/71/77
f  66/78/84 65/77/83 59/71/77
f  67/79/85 66/78/84 59/71/77
f  68/80/86 67/79/85 59/71/77
f  60/72/78 68/80/86 59/71/77
f  60/72/78 61/73/79 70/81/87
f  70/81/87 69/82/88 60/72/78
f  61/73/79 62/74/80 71/83/89
f  71/83/89 70/81/87 61/73/79
f  62/74/80 63/75/81 72/84/90
f  72/84/90 71/83/89 62/74/80
f  63/75/81 64/76/82 73/85/91
f  73/85/91 72/84/90 63/75/81
f  64/76/82 65/77/83 74/86/92
f  74/86/92 73/85/91 64/76/82
f  65/77/83 66/78/84 75/87/93
f  75/87/93 74/86/92 65/77/83
f  66/78/84 67/79/85 76/88/94
f  76/88/94 75/87/93 66/78/84
f  67/79/85 68/80/86 77/89/95
f  77/89/95 76/88/94 67/79/85
f  68/80/86 60/72/78 69/82/88
f  69/82/88 77/89/95 68/80/86
f  69/82/88 70/81/87 79/90/96
f  79/90/96 78/91/97 69/82/88
f  70/81/87 71/83/89 80/92/98
f  80/92/98 79/90/96 70/81/87
f  71/83/89 72/84/90 81/93/99
f  81/93/99 80/92/98 71/83/89
f  72/84/90 73/85/91 82/94/100
f  82/94/100 81/93/99 72/84/90
f  73/85/91 74/86/92 83/95/101
f  83/95/101 82/94/100 73/85/91
f  74/86/92 75/87/93 84/96/102
f  84/96/102 83/95/101 74/86/92
f  75/87/93 76/88/94 85/97/103
f  85/97/103 84/96/102 75/87/93
f  76/88/94 77/89/95 86/98/104
f  86/98/104 85/97/103 76/88/94
f  77/89/95 69/82/88 78/91/97
f  78/91/97 86/98/104 77/89/95
f  78/91/97 79/90/96 87/99/105
f  79/90/96 80/92/98 87/99/105
f  80/92/98 81/93/99 87/99/105
f  81/93/99 82/94/100 87/99/105
f  82/94/100 83/95/101 87/99/105
f  83/95/101 84/96/102 87/99/105
f  84/96/102 85/97/103 87/99/105
f  85/97/103 86/98/104 87/99/105
f  86/98/104 78/91/97 87/99/105
f  90/102/108 89/101/107 88/100/106
f  91/103/109 90/102/108 88/100/106
f  92/104/110 91/103/109 88/100/106
f  93/105/111 92/104/110 88/100/106
f  94/106/112 93/105/111 88/100/106
f  95/107/113 94/106/112 88/100/106
f  96/108/114 95/107/113 88/100/106
f  97/109/115 96/108/114 88/100/106
f  89/101/107 97/109/115 88/100/106
f  89/101/107 90/102/108 99/110/116
f  99/110/116 98/111/117 89/101/107
f  90/102/108 91/103/109 100/112/118
f  100/112/118 99/110/116 90/102/108
f  91/103/109 92/104/110 101/113/119
f  101/113/119 100/112/118 91/103/109
f  92/104/110 93/105/111 102/114/120
f  102/114/120 101/113/119 92/104/110
f  93/105/111 94/106/112 103/115/121
f  103/115/121 102/114/120 93/105/111
f  94/106/112 95/107/113 104/116/122
f  104/116/122 103/115/121 94/106/112
f  95/107/113 96/108/114 105/117/123
f  105/117/123 104/116/122 95/107/113
f  96/108/114 97/109/115 106/118/124
f  106/118/124 105/117/123 96/108/114
f  97/109/115 89/101/107 98/111/117
f  98/111/117 106/118/124 97/109/115
f  98/111/117 99/110/116 108/119/125
f  108/119/125 107/120/126 98/111/117
f  99/110/116 100/112/118 109/121/127
f  109/121/127 108/119/125 99/110/116
f  100/112/118 101/113/119 110/122/128
f  110/122/128 109/121/127 100/112/118
f  101/113/119 102/114/120 111/123/129
f  111/123/129 110/122/128 101/113/119
f  102/114/120 103/115/121 112/124/101
f  112/124/101 111/123/129 102/114/120
f  103/115/121 104/116/122 113/125/130
f  113/125/130 112/124/101 103/115/121
f  104/116/122 105/117/123 114/126/131
f  114/126/131 113/125/130 104/116/122
f  105/117/123 106/118/124 115/127/132
f  115/127/132 114/126/131 105/117/123
f  106/118/124 98/111/117 107/120/126
f  107/120/126 115/127/132 106/118/124
f  107/120/126 108/119/125 116/128/133
f  108/119/125 109/121/127 116/128/133
f  109/121/127 110/122/128 116/128/133
f  110/122/128 111/123/129 116/128/133
f  111/123/129 112/124/101 116/128/133
f  112/124/101 113/125/130 116/128/133
f  113/125/130 114/126/131 116/128/133
f  114/126/131 115/127/132 116/128/133
f  115/127/132 107/120/126 116/128/133
