# 
# Wavefront OBJ file
# Converted by the DEEP Exploration 
# Right Hemisphere, LTD
# http://www.righthemisphere.com/
# 
# object Box01
g Box01
v -0.636608 -0.636608 -0.636608
v 0.636608 -0.636608 -0.636608
v -0.636608 -0.636608 0.636608
v 0.636608 -0.636608 0.636608
v -0.636609 0.636608 -0.636608
v 0.636608 0.636608 -0.636608
v -0.636609 0.636608 0.636608
v 0.636608 0.636608 0.636608
v -0.168577 -0.168577 -2.1161
v 0.168577 -0.168577 -2.1161
v 0.168577 0.168577 -2.1161
v -0.168577 0.168577 -2.1161
v 0.168577 -0.168577 2.1161
v -0.168577 -0.168577 2.1161
v -0.168578 0.168577 2.1161
v 0.168577 0.168577 2.1161
v -0.168577 -2.1161 -0.168577
v -0.168577 -2.1161 0.168577
v 0.168578 -2.1161 0.168577
v 0.168578 -2.1161 -0.168577
v -0.168578 2.1161 -0.168577
v 0.168577 2.1161 -0.168577
v 0.168577 2.1161 0.168577
v -0.168578 2.1161 0.168577
v 2.1161 -0.168577 -0.168577
v 2.1161 -0.168577 0.168577
v 2.1161 0.168578 0.168577
v 2.1161 0.168578 -0.168577
v -2.1161 -0.168578 0.168577
v -2.1161 -0.168578 -0.168577
v -2.1161 0.168577 -0.168577
v -2.1161 0.168577 0.168577
v 0.168577 -0.168577 -2.1161
v 0.168577 -0.168577 -2.1161
v -0.168577 -0.168577 -2.1161
v 0.636608 -0.636608 -0.636608
v 0.168577 0.168577 -2.1161
v 0.168577 0.168577 -2.1161
v 0.168577 -0.168577 -2.1161
v 0.636608 -0.636608 -0.636608
v 0.636608 0.636608 -0.636608
v -0.168577 0.168577 -2.1161
v -0.168577 0.168577 -2.1161
v 0.168577 0.168577 -2.1161
v 0.636608 0.636608 -0.636608
v -0.636609 0.636608 -0.636608
v -0.636608 -0.636608 -0.636608
v -0.168577 -0.168577 -2.1161
v -0.168577 -0.168577 -2.1161
v -0.168577 0.168577 -2.1161
v -0.636609 0.636608 -0.636608
v -0.168577 -0.168577 2.1161
v -0.168577 -0.168577 2.1161
v 0.168577 -0.168577 2.1161
v -0.636608 -0.636608 0.636608
v -0.168578 0.168577 2.1161
v -0.168578 0.168577 2.1161
v -0.168577 -0.168577 2.1161
v -0.636608 -0.636608 0.636608
v -0.636609 0.636608 0.636608
v 0.168577 0.168577 2.1161
v 0.168577 0.168577 2.1161
v -0.168578 0.168577 2.1161
v -0.636609 0.636608 0.636608
v 0.636608 -0.636608 0.636608
v 0.168577 -0.168577 2.1161
v 0.168577 -0.168577 2.1161
v 0.168577 0.168577 2.1161
v -0.636608 -0.636608 -0.636608
v -0.636608 -0.636608 0.636608
v -0.168577 -2.1161 0.168577
v -0.168577 -2.1161 0.168577
v -0.168577 -2.1161 -0.168577
v -0.636608 -0.636608 -0.636608
v -0.636608 -0.636608 0.636608
v 0.636608 -0.636608 0.636608
v 0.168578 -2.1161 0.168577
v 0.168578 -2.1161 0.168577
v -0.168577 -2.1161 0.168577
v -0.636608 -0.636608 0.636608
v 0.636608 -0.636608 0.636608
v 0.636608 -0.636608 -0.636608
v 0.168578 -2.1161 -0.168577
v 0.168578 -2.1161 -0.168577
v 0.168578 -2.1161 0.168577
v 0.636608 -0.636608 0.636608
v 0.636608 -0.636608 -0.636608
v -0.636608 -0.636608 -0.636608
v -0.168577 -2.1161 -0.168577
v -0.168577 -2.1161 -0.168577
v 0.168578 -2.1161 -0.168577
v 0.636608 -0.636608 -0.636608
v -0.636609 0.636608 -0.636608
v 0.636608 0.636608 -0.636608
v 0.168577 2.1161 -0.168577
v 0.168577 2.1161 -0.168577
v -0.168578 2.1161 -0.168577
v -0.636609 0.636608 -0.636608
v 0.168577 2.1161 0.168577
v 0.168577 2.1161 0.168577
v 0.168577 2.1161 -0.168577
v 0.636608 0.636608 0.636608
v -0.636609 0.636608 0.636608
v -0.168578 2.1161 0.168577
v -0.168578 2.1161 0.168577
v 0.168577 2.1161 0.168577
v 0.636608 0.636608 0.636608
v -0.636609 0.636608 -0.636608
v -0.168578 2.1161 -0.168577
v -0.168578 2.1161 -0.168577
v -0.168578 2.1161 0.168577
v 2.1161 -0.168577 0.168577
v 2.1161 -0.168577 0.168577
v 2.1161 -0.168577 -0.168577
v 0.636608 -0.636608 0.636608
v 0.636608 0.636608 0.636608
v 2.1161 0.168578 0.168577
v 2.1161 0.168578 0.168577
v 2.1161 -0.168577 0.168577
v 0.636608 -0.636608 0.636608
v 0.636608 0.636608 -0.636608
v 2.1161 0.168578 -0.168577
v 2.1161 0.168578 -0.168577
v 2.1161 0.168578 0.168577
v 0.636608 0.636608 -0.636608
v 0.636608 -0.636608 -0.636608
v 2.1161 -0.168577 -0.168577
v 2.1161 -0.168577 -0.168577
v 2.1161 0.168578 -0.168577
v 0.636608 0.636608 -0.636608
v -2.1161 -0.168578 -0.168577
v -2.1161 -0.168578 -0.168577
v -2.1161 -0.168578 0.168577
v -0.636608 -0.636608 -0.636608
v -0.636609 0.636608 -0.636608
v -2.1161 0.168577 -0.168577
v -2.1161 0.168577 -0.168577
v -2.1161 -0.168578 -0.168577
v -0.636608 -0.636608 -0.636608
v -0.636609 0.636608 0.636608
v -2.1161 0.168577 0.168577
v -2.1161 0.168577 0.168577
v -2.1161 0.168577 -0.168577
v -0.636609 0.636608 0.636608
v -0.636608 -0.636608 0.636608
v -2.1161 -0.168578 0.168577
v -2.1161 -0.168578 0.168577
v -2.1161 0.168577 0.168577
v -0.636609 0.636608 0.636608
# 149 verticies
vt 0.539792 0.460208
vt 0.539792 0.539792
vt 0.460208 0.539792
vt 0.460208 0.460208
vt 0.460208 0.460208
vt 0.539792 0.460208
vt 0.460208 0.539792
vt 0.460208 0.460208
vt 0.539792 0.460208
vt 0.539792 0.539792
vt 0.460208 0.539792
vt 0.460208 0.460208
vt 0.539792 0.460208
vt 0.539792 0.539792
vt 0.460208 0.539792
vt 0.460208 0.539792
vt 0.539792 0.539792
vt 0.460208 0.539792
vt 0.65027 0.34973
vt 0.34973 0.34973
vt 0.460208 0.000499487
vt 0.539792 0.000499517
vt 0.34973 0.34973
vt 0.34973 0.65027
vt 0.000499487 0.539792
vt 0.000499487 0.460208
vt 0.65027 0.34973
vt 0.34973 0.34973
vt 0.460208 0.000499517
vt 0.539792 0.000499487
vt 0.65027 0.65027
vt 0.65027 0.34973
vt 0.999501 0.460208
vt 0.999501 0.539792
vt 0.34973 0.65027
vt 0.65027 0.65027
vt 0.539792 0.999501
vt 0.460208 0.999501
vt 0.34973 0.34973
vt 0.34973 0.65027
vt 0.34973 0.65027
vt 0.65027 0.65027
vt 0.539792 0.999501
vt 0.460208 0.999501
vt 0.65027 0.34973
vt 0.460208 0.000499517
vt 0.539792 0.000499517
vt 0.34973 0.34973
vt 0.460208 0.000499517
vt 0.539792 0.000499517
vt 0.460208 0.000499517
vt 0.539792 0.999501
vt 0.460208 0.999501
vt 0.539792 0.999501
vt 0.460208 0.999501
vt 0.000499517 0.539792
vt 0.000499547 0.460208
vt 0.000499517 0.539792
vt 0.000499517 0.460208
vt 0.9995 0.460208
vt 0.999501 0.539792
vt 0.9995 0.460208
vt 0.9995 0.539792
vt 0.999501 0.460208
vt 0.9995 0.539792
vt 0.000499517 0.539792
vt 0.000499547 0.539792
vt 0.000499517 0.460208
vt 0.9995 0.539792
# 69 texture verticies
vn 0 -1 0
vn 0 1 0
vn 0 0 -1
vn 1 7.07149e-007 -3.12537e-014
vn 0 0 1
vn -1 -7.07149e-007 3.12538e-014
vn 2.3729e-007 -0.95343 -0.301614
vn 2.10693e-007 -0.95343 -0.301614
vn 0.95343 2.53685e-007 -0.301614
vn 0.95343 1.26416e-007 -0.301614
vn -1.19782e-007 0.95343 -0.301614
vn -2.10693e-007 0.95343 -0.301614
vn -0.95343 -2.81924e-007 -0.301614
vn -0.95343 -2.10693e-007 -0.301614
vn 2.09051e-007 -0.95343 0.301614
vn 2.10693e-007 -0.95343 0.301614
vn -0.95343 -2.53685e-007 0.301614
vn -0.95343 -2.10693e-007 0.301614
vn -1.48022e-007 0.95343 0.301614
vn -2.10693e-007 0.95343 0.301614
vn 0.95343 2.81924e-007 0.301614
vn 0.95343 1.26416e-007 0.301614
vn -0.95343 -0.301614 1.41198e-008
vn -0.95343 -0.301614 0
vn 2.59649e-008 -0.301614 0.95343
vn 0 -0.301614 0.95343
vn 0.95343 -0.301613 1.41198e-008
vn 0.95343 -0.301613 0
vn 1.15233e-007 -0.301614 -0.95343
vn 0 -0.301614 -0.95343
vn 2.27469e-009 0.301613 -0.95343
vn 0 0.301613 -0.95343
vn 0.95343 0.301614 -1.41198e-008
vn 0.95343 0.301614 0
vn -8.69935e-008 0.301614 0.95343
vn 0 0.301614 0.95343
vn -0.95343 0.301613 -1.41198e-008
vn -0.95343 0.301613 0
vn 0.301614 -0.95343 4.46341e-008
vn 0.301614 -0.95343 4.21386e-008
vn 0.301614 1.29353e-007 0.95343
vn 0.301613 2.55424e-007 0.95343
vn 0.301613 0.95343 -4.46341e-008
vn 0.301613 0.95343 -4.21386e-008
vn 0.301614 4.00847e-008 -0.95343
vn 0.301614 1.71147e-007 -0.95343
vn -0.301613 -0.95343 4.46341e-008
vn -0.301613 -0.95343 4.21386e-008
vn -0.301614 -1.29353e-007 -0.95343
vn -0.301614 -2.55424e-007 -0.95343
vn -0.301614 0.95343 -4.46341e-008
vn -0.301614 0.95343 -4.21386e-008
vn -0.301614 -4.00847e-008 0.95343
vn -0.301614 -1.71147e-007 0.95343
# 54 normals
f  19/3/1 18/2/1 17/1/1
f  17/1/1 20/4/1 19/3/1
f  23/2/2 22/6/2 21/5/2
f  21/5/2 24/7/2 23/2/2
f  11/10/3 10/9/3 9/8/3
f  9/8/3 12/11/3 11/10/3
f  27/14/4 26/13/4 25/12/4
f  25/12/4 28/15/4 27/14/4
f  15/14/5 14/13/5 13/12/5
f  13/12/5 16/16/5 15/14/5
f  31/17/6 30/9/6 29/8/6
f  29/8/6 32/18/6 31/17/6
f  33/21/7 2/20/7 1/19/7
f  1/19/8 35/22/8 34/21/8
f  37/25/9 6/24/9 36/23/9
f  40/23/10 39/26/10 38/25/10
f  42/29/11 5/28/11 41/27/11
f  45/27/12 44/30/12 43/29/12
f  48/33/13 47/32/13 46/31/13
f  51/31/14 50/34/14 49/33/14
f  52/37/15 3/36/15 4/35/15
f  4/35/16 54/38/16 53/37/16
f  56/25/17 7/40/17 55/39/17
f  59/39/18 58/26/18 57/25/18
f  61/43/19 8/42/19 60/41/19
f  64/41/20 63/44/20 62/43/20
f  66/33/21 65/45/21 8/42/21
f  8/42/22 68/34/22 67/33/22
f  71/46/23 70/39/23 69/32/23
f  74/32/24 73/47/24 72/46/24
f  77/49/25 76/48/25 75/45/25
f  80/45/26 79/50/26 78/49/26
f  83/51/27 82/23/27 81/45/27
f  86/45/28 85/50/28 84/51/28
f  89/46/29 88/48/29 87/45/29
f  92/45/30 91/47/30 90/46/30
f  95/52/31 94/31/31 93/35/31
f  98/35/32 97/53/32 96/52/32
f  99/54/33 8/42/33 6/24/33
f  6/24/34 101/53/34 100/54/34
f  104/52/35 103/42/35 102/24/35
f  107/24/36 106/53/36 105/52/36
f  109/52/37 108/31/37 7/40/37
f  7/40/38 111/55/38 110/52/38
f  112/56/39 4/35/39 2/20/39
f  2/20/40 114/57/40 113/56/40
f  117/58/41 116/24/41 115/48/41
f  120/48/42 119/59/42 118/58/42
f  122/60/43 121/27/43 8/42/43
f  8/42/44 124/61/44 123/60/44
f  127/62/45 126/45/45 125/31/45
f  130/31/46 129/63/46 128/62/46
f  131/64/47 1/19/47 3/36/47
f  3/36/48 133/65/48 132/64/48
f  136/66/49 135/35/49 134/48/49
f  139/48/50 138/59/50 137/66/50
f  141/67/51 140/41/51 5/28/51
f  5/28/52 143/68/52 142/67/52
f  146/62/53 145/45/53 144/42/53
f  149/42/54 148/69/54 147/62/54
