# Max2Obj Version 4.0 Mar 10th, 2001
#
# object HULL_LOD0 to come ...
#
v  0.394014120102 0.000000082666 1.891168355942
v  -0.001892663073 -0.394357591867 1.891168355942
v  -0.281840413809 -0.278853118420 1.891168355942
v  -0.397798836231 0.000000082666 1.891168355942
v  -0.001892663073 0.394357740879 1.891168355942
v  0.600153565407 0.000000065382 1.495775341988
v  0.421600848436 -0.429377734661 1.495775461197
v  -0.009462778457 -0.607231676579 1.495775461197
v  -0.440526962280 -0.429377734661 1.495775461197
v  -0.619079053402 0.000000065382 1.495775341988
v  -0.009462778457 0.607231795788 1.495775341988
v  1.052540421486 0.000000037906 0.867180645466
v  0.741486549377 -0.748011946678 0.867180705070
v  -0.009462778457 -1.057848930359 0.867180705070
v  -1.071465969086 0.000000037906 0.867180645466
v  -0.009462778457 1.057848930359 0.867180585861
v  0.741486549377 0.748012006283 0.867180645466
v  1.149503827095 0.000000000000 0.000000000000
v  0.812821865082 -0.809642136097 0.000000035391
v  0.000000000000 -1.145007014275 0.000000050050
v  -0.812821865082 -0.809642136097 0.000000035391
v  -1.149503827095 0.000000000000 0.000000000000
v  0.000000000000 1.145007014275 -0.000000050050
v  0.812821865082 0.809642136097 -0.000000035391
v  0.955802798271 -0.000000037631 -0.860897004604
v  0.000000000000 -0.952064156532 -0.860897004604
v  -0.955802798271 -0.000000037631 -0.860897004604
v  0.000000000000 0.952064096928 -0.860897064209
v  0.675854563713 0.673210859299 -0.860897064209
v  0.609616279602 -0.000000065382 -1.495775341988
v  0.000000000000 -0.607231795788 -1.495775341988
v  -0.609616279602 -0.000000065382 -1.495775341988
v  0.001936912769 -0.609063625336 -1.737420439720
v  -0.430427551270 -0.430673003197 -1.737420558929
v  -0.609518647194 -0.000000075945 -1.737420558929
v  0.001936912769 -0.000000076079 -1.740495562553
v  0.613392472267 -0.000000075945 -1.737420558929
v  0.434301376343 -0.430673003197 -1.737420558929
v  0.001936912769 0.609063506126 -1.737420558929
v  0.434301376343 0.430672854185 -1.737420558929
v  0.431064218283 0.429377734661 -1.495775461197
v  -0.430427551270 0.430672854185 -1.737420558929
v  -0.431064218283 0.429377734661 -1.495775461197
v  0.000000000000 0.607231676579 -1.495775461197
v  0.431064218283 -0.429377853870 -1.495775341988
v  -0.431064218283 -0.429377853870 -1.495775341988
v  -0.675854563713 -0.673210918903 -0.860897004604
v  -0.675854563713 0.673210859299 -0.860897064209
v  -0.812821865082 0.809642136097 -0.000000035391
v  -0.760412096977 -0.748011946678 0.867180705070
v  -0.760412096977 0.748012006283 0.867180645466
v  -0.440526962280 0.429377853870 1.495775341988
v  -0.281840413809 0.278853267431 1.891168355942
v  0.675854563713 -0.673210918903 -0.860897004604
v  0.421600848436 0.429377853870 1.495775341988
v  0.278055697680 0.278853267431 1.891168355942
v  0.278055697680 -0.278853118420 1.891168355942
v  0.000000000000 0.000000093234 2.132950782776
# 58 vertices

vt  0.249188020825 0.022825673223 0.647802114487
vt  0.329946249723 0.087475433946 0.575811088085
vt  0.248148143291 0.075518950820 0.608581960201
vt  0.248638316989 0.087475433946 0.545991539955
vt  0.167330548167 0.087475433946 0.575811088085
vt  0.248148143291 0.075518950820 0.390375077724
vt  0.249172851443 0.022825673223 0.352197915316
vt  0.248148143291 0.184480875731 0.665389597416
vt  0.248148143291 0.184480875731 0.329394936562
vt  0.248148143291 0.357708275318 0.790057837963
vt  0.371637374163 0.193198889494 0.536950469017
vt  0.246439665556 0.193198889494 0.491034269333
vt  0.121241800487 0.193198889494 0.536950469017
vt  0.248148143291 0.357708275318 0.204726696014
vt  0.168614700437 0.087475433946 0.424188882113
vt  0.248631864786 0.087475433946 0.454008430243
vt  0.328649193048 0.087475433946 0.424188882113
vt  0.248148202896 0.596684873104 0.816778898239
vt  0.464544653893 0.361277759075 0.454689323902
vt  0.246439665556 0.361277759075 0.374699324369
vt  0.028334660456 0.361277759075 0.454689323902
vt  0.248148202896 0.596684873104 0.183221101761
vt  0.248148202896 0.833929896355 0.763399004936
vt  0.248148202896 0.833929896355 0.236601009965
vt  0.123257525265 0.193198889494 0.463049530983
vt  0.375941842794 1.008888840675 0.381207823753
vt  0.485263168812 0.593151688576 0.438778400421
vt  0.249188020825 0.593151688576 0.352197915316
vt  0.013112829998 0.593151688576 0.438778400421
vt  0.248148202896 1.008888840675 0.332002669573
vt  0.246468126774 0.193198889494 0.508965730667
vt  0.369678586721 0.193198889494 0.463049530983
vt  0.448512703180 0.833929836750 0.313748806715
vt  0.120354600251 1.008888840675 0.381207823753
vt  0.445482522249 0.823345482349 0.474000573158
vt  0.249188020825 0.823345482349 0.402009576559
vt  0.052893474698 0.823345482349 0.474000573158
vt  0.047783710063 0.833929896355 0.313748806715
vt  0.007178334985 0.596684873104 0.276003539562
vt  0.031825099140 0.361277759075 0.545310676098
vt  0.246468126774 0.361277759075 0.625300645828
vt  0.990663409233 0.640228450298 0.500000000000
vt  0.919516205788 0.640228450298 0.148916810751
vt  0.747750997543 0.640228450298 0.003493513912
vt  0.575985848904 0.640228450298 0.148916810751
vt  0.504838645458 0.640228450298 0.500000000000
vt  0.461111128330 0.361277759075 0.545310676098
vt  0.489118039608 0.596684813499 0.276003539562
vt  0.470775336027 0.357708275318 0.290446549654
vt  0.575985848904 0.640228450298 0.851083219051
vt  0.747750997543 0.640228450298 0.996506512165
vt  0.919516205788 0.640228450298 0.851083219051
vt  0.519283115864 0.758145689964 0.498742729425
vt  0.586769044399 0.924431025982 0.498742729425
vt  0.016844885424 0.593151688576 0.561221599579
vt  0.249172851443 0.593151688576 0.647802114487
vt  0.481500804424 0.593151688576 0.561221599579
vt  0.753059029579 0.993041217327 0.498742729425
vt  0.919349074364 0.924431025982 0.498742729425
vt  0.025521039963 0.357708305120 0.290446549654
vt  0.120354503393 0.184480875731 0.378600120544
vt  0.055994089693 0.823345482349 0.525999426842
vt  0.989622116089 0.758145689964 0.498742729425
vt  0.920742630959 0.923785150051 0.498742729425
vt  0.754452645779 0.992395341396 0.498742729425
vt  0.588162660599 0.923785150051 0.498742729425
vt  0.754452645779 0.758145689964 0.501257359982
vt  0.754452645779 0.758145689964 0.501257359982
vt  0.754452645779 0.758145689964 0.501257359982
vt  0.989622116089 0.758145689964 0.498742729425
vt  0.519283115864 0.758145689964 0.498742729425
vt  0.249172851443 0.823345482349 0.597990393639
vt  0.442351579666 0.823345482349 0.525999426842
vt  0.992168068886 0.736516177654 0.500000000000
vt  0.920806050301 0.736516177654 0.147857844830
vt  0.920806050301 0.736516177654 0.147857844830
vt  0.748522818089 0.736516177654 0.001995719736
vt  0.919516205788 0.640228450298 0.148916810751
vt  0.576239585876 0.736516177654 0.147857844830
vt  0.576239585876 0.736516177654 0.147857844830
vt  0.504877507687 0.736516177654 0.500000000000
vt  0.374385893345 0.993104517460 0.536950469017
vt  0.249188020825 0.993104517460 0.491034269333
vt  0.123990155756 0.993104517460 0.536950469017
vt  0.375941783190 0.184480860829 0.378600120544
vt  0.165154457092 0.075518950820 0.422330766916
vt  0.331141889095 0.075518935919 0.422330766916
vt  0.575985848904 0.640228450298 0.148916810751
vt  0.576239585876 0.736516177654 0.852142155170
vt  0.920806050301 0.736516177654 0.852142155170
vt  0.248148143291 0.008888867684 0.500000000000
vt  0.248148202896 1.008888840675 0.667997300625
vt  0.748522818089 0.736516177654 0.998004257679
vt  0.920806050301 0.736516177654 0.852142155170
vt  0.375941842794 1.008888840675 0.618792176247
vt  0.919516205788 0.640228450298 0.851083219051
vt  0.448512703180 0.833929836750 0.686251223087
vt  0.120354600251 1.008888840675 0.618792176247
vt  0.047783710063 0.833929896355 0.686251223087
vt  0.007178334985 0.596684873104 0.723996460438
vt  0.489118039608 0.596684813499 0.723996460438
vt  0.576239585876 0.736516177654 0.852142155170
vt  0.575985848904 0.640228450298 0.851083219051
vt  0.025521039963 0.357708305120 0.704337954521
vt  0.470775336027 0.357708275318 0.704337954521
vt  0.120354503393 0.184480875731 0.616184234619
vt  0.375941783190 0.184480860829 0.616184234619
vt  0.165154457092 0.075518950820 0.576626241207
vt  0.331141889095 0.075518935919 0.576626241207
vt  0.125962257385 0.993104517460 0.463049530983
vt  0.249172851443 0.993104517460 0.508965730667
vt  0.372383445501 0.993104517460 0.463049530983
# 112 texture vertices

g HULL_LOD0
s 1
f 37/53 38/54 36/67
f 38/54 33/58 36/67
f 33/58 34/59 36/67
f 34/59 35/63 36/68
f 35/70 42/64 36/69
f 42/64 39/65 36/69
f 39/65 40/66 36/69
f 40/66 37/71 36/69
s 2
f 45/43 38/75 37/74
f 45/43 37/74 30/42
f 31/44 33/77 38/76
f 31/44 38/76 45/78
f 46/45 34/79 33/77
f 46/45 33/77 31/44
f 32/46 35/81 34/80
f 32/46 34/80 46/88
f 43/50 42/89 35/81
f 43/50 35/81 32/46
f 30/42 37/74 40/90
f 30/42 40/90 41/52
f 41/96 40/94 39/93
f 41/96 39/93 44/51
f 44/51 39/93 42/102
f 44/51 42/102 43/103
f 28/72 44/111 43/110
f 28/72 43/110 48/62
f 29/73 41/112 44/111
f 29/73 44/111 28/72
f 24/57 29/73 28/72
f 24/57 28/72 23/56
f 23/56 28/72 48/62
f 23/56 48/62 49/55
f 17/47 24/57 23/56
f 17/47 23/56 16/41
f 16/41 23/56 49/55
f 16/41 49/55 51/40
f 11/31 16/41 51/40
f 11/31 51/40 52/25
f 55/32 17/47 16/41
f 55/32 16/41 11/31
f 5/16 11/31 52/25
f 5/16 52/25 53/15
f 56/17 55/32 11/31
f 56/17 11/31 5/16
f 5/16 53/15 58/7
f 56/17 5/16 58/7
f 26/36 31/83 45/82
f 26/36 45/82 54/35
f 47/37 46/84 31/83
f 47/37 31/83 26/36
f 21/29 47/37 26/36
f 21/29 26/36 20/28
f 20/28 26/36 54/35
f 20/28 54/35 19/27
f 14/20 20/28 19/27
f 14/20 19/27 13/19
f 8/12 14/20 13/19
f 8/12 13/19 7/11
f 9/13 50/21 14/20
f 9/13 14/20 8/12
f 2/4 8/12 7/11
f 2/4 7/11 57/2
f 3/5 9/13 8/12
f 3/5 8/12 2/4
f 2/4 57/2 58/1
f 3/5 2/4 58/1
f 50/21 21/29 20/28
f 50/21 20/28 14/20
f 27/24 32/30 46/26
f 27/24 46/26 47/33
f 48/38 43/34 32/30
f 48/38 32/30 27/24
f 49/39 48/38 27/24
f 49/39 27/24 22/22
f 22/22 27/24 47/33
f 22/22 47/33 21/48
f 15/14 22/22 21/48
f 15/14 21/48 50/49
f 51/60 49/39 22/22
f 51/60 22/22 15/14
f 52/61 51/60 15/14
f 52/61 15/14 10/9
f 10/9 15/14 50/49
f 10/9 50/49 9/85
f 53/86 52/61 10/9
f 53/86 10/9 4/6
f 4/6 10/9 9/85
f 4/6 9/85 3/87
f 4/6 3/87 58/91
f 53/86 4/6 58/91
f 54/97 45/95 30/92
f 54/97 30/92 25/23
f 25/23 30/92 41/98
f 25/23 41/98 29/99
f 18/18 25/23 29/99
f 18/18 29/99 24/100
f 19/101 54/97 25/23
f 19/101 25/23 18/18
f 12/10 18/18 24/100
f 12/10 24/100 17/104
f 13/105 19/101 18/18
f 13/105 18/18 12/10
f 6/8 12/10 17/104
f 6/8 17/104 55/106
f 7/107 13/105 12/10
f 7/107 12/10 6/8
f 1/3 6/8 55/106
f 1/3 55/106 56/108
f 57/109 7/107 6/8
f 57/109 6/8 1/3
f 57/109 1/3 58/91
f 1/3 56/108 58/91
# 112 faces

g
# object HULL_LOD1 to come ...
#
v  0.662471652031 0.000000065356 -1.720950841904
v  -0.000000016686 0.662471771240 -1.720950841904
v  -0.662471711636 0.000000007441 -1.720950841904
v  0.000000099144 -0.662471592426 -1.720950841904
v  1.130358815193 0.000000177207 0.945966243744
v  -0.000000049410 1.130359053612 0.945966243744
v  -1.130358815193 0.000000078388 0.945966243744
v  0.000000148229 -1.130358576775 0.945966243744
v  0.000000029802 0.000000312114 2.235264301300
# 9 vertices

vt  0.168754205108 0.964156508446 0.438912272453
vt  0.168754234910 0.964156508446 0.438912302256
vt  0.371442198753 0.964156508446 0.438912302256
vt  0.919840157032 0.265037029982 0.500000000000
vt  0.371442168951 0.964156508446 0.438912272453
vt  0.097177498043 0.382761180401 0.438912332058
vt  0.443018943071 0.382761180401 0.438912302256
vt  0.373681575060 0.964156508446 0.438912302256
vt  0.980526745319 0.758074104786 0.214847609401
vt  0.173233151436 0.964156508446 0.438912302256
vt  0.375921130180 0.964156508446 0.438912302256
vt  0.170993670821 0.964156508446 0.438912302256
vt  0.101656422019 0.382761180401 0.438912302256
vt  0.447497814894 0.382761180401 0.438912332058
vt  0.765777707100 0.972823083401 0.214847609401
vt  0.551028788090 0.758074104786 0.214847609401
vt  0.765777826309 0.543325185776 0.214847609401
vt  0.765777766705 0.758074164391 0.785152375698
vt  0.754222214222 0.430655002594 0.500000000000
vt  0.588604271412 0.265037029982 0.500000000000
vt  0.754222214222 0.099419116974 0.500000000000
vt  0.445258319378 0.382761180401 0.438912302256
vt  0.099416978657 0.382761180401 0.438912272453
vt  0.097177505493 0.382761180401 0.438912302256
vt  0.443018943071 0.382761180401 0.438912272453
# 25 texture vertices

g HULL_LOD1
s 1
f 61/132 60/131 59/116
f 59/116 62/133 61/132
s 2
f 59/113 60/117 64/137
f 64/137 63/136 59/113
f 60/114 61/115 65/119
f 65/119 64/118 60/114
f 61/122 62/123 66/126
f 66/126 65/125 61/122
f 62/124 59/120 63/134
f 63/134 66/135 62/124
f 63/121 64/127 67/130
f 64/127 65/128 67/130
f 65/128 66/129 67/130
f 66/129 63/121 67/130
# 14 faces

g
# object CM_HULL to come ...
#
v  0.000000012271 0.000000065356 -1.720950841904
v  0.662471652031 0.000000065356 -1.720950841904
v  -0.000000016686 0.662471771240 -1.720950841904
v  -0.662471711636 0.000000007441 -1.720950841904
v  0.000000099144 -0.662471592426 -1.720950841904
v  1.130358815193 0.000000177207 0.945966243744
v  -0.000000049410 1.130359053612 0.945966243744
v  -1.130358815193 0.000000078388 0.945966243744
v  0.000000148229 -1.130358576775 0.945966243744
v  0.000000029802 0.000000312114 2.235264301300
# 10 vertices

vt  0.754222214222 0.265037029982 0.500000000000
vt  0.168754205108 0.964156508446 0.438912272453
vt  0.168754234910 0.964156508446 0.438912302256
vt  0.371442198753 0.964156508446 0.438912302256
vt  0.919840157032 0.265037029982 0.500000000000
vt  0.371442168951 0.964156508446 0.438912272453
vt  0.097177498043 0.382761180401 0.438912332058
vt  0.443018943071 0.382761180401 0.438912302256
vt  0.373681575060 0.964156508446 0.438912302256
vt  0.980526745319 0.758074104786 0.214847609401
vt  0.173233151436 0.964156508446 0.438912302256
vt  0.375921130180 0.964156508446 0.438912302256
vt  0.170993670821 0.964156508446 0.438912302256
vt  0.101656422019 0.382761180401 0.438912302256
vt  0.447497814894 0.382761180401 0.438912332058
vt  0.765777707100 0.972823083401 0.214847609401
vt  0.551028788090 0.758074104786 0.214847609401
vt  0.765777826309 0.543325185776 0.214847609401
vt  0.765777766705 0.758074164391 0.785152375698
vt  0.754222214222 0.430655002594 0.500000000000
vt  0.588604271412 0.265037029982 0.500000000000
vt  0.754222214222 0.099419116974 0.500000000000
vt  0.445258319378 0.382761180401 0.438912302256
vt  0.099416978657 0.382761180401 0.438912272453
vt  0.097177505493 0.382761180401 0.438912302256
vt  0.443018943071 0.382761180401 0.438912272453
# 26 texture vertices

vn  0.000000000000 0.000000000000 -1.000000000000
vn  0.000000000000 0.000000000000 -1.570796489716
vn  0.000000000000 0.000000000000 -1.570796251297
vn  0.000000000000 0.000000000000 -1.570796132088
vn  0.000000000000 0.000000000000 -1.570796489716
vn  0.973266780376 0.000000008240 0.229677557945
vn  -0.000000017172 0.973266780376 0.229677513242
vn  -0.973266780376 -0.000000074150 0.229677572846
vn  0.000000132195 -0.973266780376 0.229677602649
vn  0.000000018482 0.000000068117 1.000000000000
# 10 vertex normals

g CM_HULL
s 1
f 68/138/1 70/157/3 69/142/2
f 68/138/1 71/158/4 70/157/3
f 68/138/1 72/159/5 71/158/4
f 68/138/1 69/142/2 72/159/5
s 8
f 69/139/2 74/163/7 73/162/6
f 69/139/2 70/143/3 74/163/7
f 70/140/3 75/145/8 74/144/7
f 70/140/3 71/141/4 75/145/8
f 71/148/4 76/152/9 75/151/8
f 71/148/4 72/149/5 76/152/9
f 72/150/5 73/160/6 76/161/9
f 72/150/5 69/146/2 73/160/6
f 73/147/6 74/153/7 77/156/10
f 74/153/7 75/154/8 77/156/10
f 75/154/8 76/155/9 77/156/10
f 76/155/9 73/147/6 77/156/10
# 16 faces

g
